<svg
      xmlns="http://www.w3.org/2000/svg"
      width="1940.447"
      height="1646.934"
      version="1.1"
      viewBox="0 0 1940.447 1646.934"
    >
      <defs>
        <filter
          width="1"
          height="1"
          x="0"
          y="0"
          colorInterpolationFilters="sRGB"
        >
          <feComposite
            in="BackgroundImage"
            in2="SourceGraphic"
            operator="arithmetic"
            result="composite1"
          ></feComposite>
        </filter>
      </defs>
      <g transform="translate(-53.69 -446.693)">
        <path
          fill="#fff"
          fillOpacity="1"
          d="M1023.913 446.748s-151.569 3.454-311.996 59.732c-.385 6.783-.79 13.908-1.002 17.582-1.69 29.333-4.205 72.015-7.38 110.12-3.177 38.124-7.129 73.025-9.858 96.722 2.85-24.433-4.206 36.125-2.521 21.695 47.907 13.452 92.362 38.084 127.535 72.522 28.577 27.98 49.962 60.93 66.803 95.039 17.592 35.632 30.641 73.44 41.345 108.697a1515.17 1515.17 0 0147.627 209.178l42.67 33.13 6.778 5.263v-829.68zm.004 0l-.002 829.678c1.906-1.48 2.968-2.302 6.778-5.26l42.67-33.131a1515.262 1515.262 0 0147.627-209.178c10.704-35.257 23.753-73.065 41.345-108.697 16.84-34.108 38.226-67.059 66.803-95.039 35.173-34.438 79.629-59.07 127.535-72.522 1.685 14.43-5.372-46.128-2.521-21.695-2.73-23.697-6.68-58.598-9.858-96.722-3.175-38.105-5.69-80.787-7.38-110.12-.212-3.674-.617-10.799-1.003-17.582-160.426-56.278-311.994-59.732-311.994-59.732zm-330.01 66.422c-45.577 17.082-91.417 38.288-134.32 65.29C359.582 704.347 397.23 798.468 397.23 798.468s-32.244-23.366-102.945-55.883c-92.97-42.76-170.297-32.59-170.297-32.59s-86.678 91.195-68.633 370.617c23.036 356.716 121.281 447.287 121.281 447.287s60 49.413 107.649 80.002c47.648 30.59 177.652 67.649 177.652 67.649s29.412 70.003 81.178 148.24c42.066 63.578 122.013 116.206 151.658 134.451-13.249-29.712-25.415-64.915-32.68-105.506a450.626 450.626 0 01-6.568-59.04c-.628-13.887-.45-28.673.351-43.923-.82-.441-1.63-.924-2.302-1.642-1.637-1.75-9.103-9.711-14.84-15.985-5.337-5.835-13.57-14.957-21.563-24.818-3.543-4.372-6.905-8.805-10.168-13.277-17.134 1.166-35.84 1.61-59.904 1.052-13.12-.303-23.677-.687-32.25-1.187-8.358-.488-14.873-1.09-20.266-1.863-5.372-.77-9.588-1.703-13.484-2.846-3.826-1.123-7.232-2.42-10.754-3.756a8.8 8.8 0 01-5.103-5.103c-13.66-35.963-24.724-65.437-32.21-92.852-7.78-28.495-11.376-55.628-12.501-63.637-.842-5.993-1.953-14.322-2.018-14.804-.01-.073.022-.139.014-.211-11.347-5.348-22.688-10.72-33.744-16.746a8.8 8.8 88.616 01-3.305-3.149c-65.096-106.839-99.447-229.759-101.027-351.183-.81-62.238 6.974-121.591 25.832-175.862 17.74-51.053 48.561-105.459 96.767-147.29l-3.75-2.481-2.508-12.19 12.19-2.51c.291.193 6.53 4.327 8.697 5.754 28.77-21.839 61.667-38.753 97.33-49.285a321.32 321.32 0 0193.399-13.117c10.582.086 21.18.701 31.74 1.861 11.376 1.25 22.62 3.341 33.773 5.809.688-5.93 1.798-15.453 2.272-19.563 2.726-23.673 6.65-58.34 9.803-96.17 3.154-37.85 5.658-80.321 7.35-109.671-.633 11.15.082-1.44.562-9.88zm660.014 0c.48 8.44 1.195 21.028.563 9.879 1.691 29.35 4.195 71.822 7.35 109.672 3.152 37.83 7.075 72.496 9.802 96.17.473 4.109 1.584 13.632 2.272 19.562 11.153-2.468 22.397-4.559 33.773-5.809 42.24-4.64 85.09-.57 125.139 11.256 35.664 10.532 68.56 27.446 97.33 49.285 2.167-1.427 8.405-5.561 8.697-5.753l12.19 2.51-2.51 12.189c-.13.085-3.234 2.142-3.748 2.48 48.206 41.832 79.027 96.238 96.767 147.291 18.858 54.271 26.642 113.624 25.832 175.861-1.58 121.425-35.931 244.345-101.027 351.184a8.8 8.8 1.384 01-3.305 3.149c-11.056 6.025-22.397 11.398-33.744 16.746-.008.072.024.138.014.21-.065.483-1.176 8.812-2.018 14.805-1.125 8.009-4.722 35.142-12.502 63.637-7.485 27.415-18.55 56.89-32.209 92.852a8.803 8.803 0 01-5.105 5.103c-3.522 1.336-6.928 2.633-10.754 3.756-3.896 1.143-8.11 2.076-13.483 2.846-5.392.773-11.91 1.375-20.267 1.863-8.573.5-19.13.884-32.25 1.187-24.064.557-42.768.114-59.902-1.052-3.263 4.472-6.625 8.905-10.168 13.277-7.993 9.861-16.226 18.983-21.563 24.818-5.737 6.274-13.203 14.235-14.84 15.985-.672.718-1.482 1.2-2.303 1.642.801 15.25.98 30.036.352 43.922a450.624 450.624 0 01-6.568 59.041c-7.265 40.591-19.431 75.794-32.68 105.506 29.645-18.245 109.591-70.873 151.658-134.451 51.766-78.237 81.178-148.24 81.178-148.24s130.004-37.06 177.652-67.649c47.649-30.589 107.65-80.002 107.65-80.002s98.244-90.571 121.28-447.287c18.044-279.422-68.633-370.617-68.633-370.617s-77.327-10.17-170.297 32.59c-70.702 32.517-102.945 55.883-102.945 55.883s37.648-94.12-162.357-220.006c-42.903-27.003-88.743-48.209-134.32-65.291zM608.257 758.383a303.697 303.697 0 00-88.261 12.396 286.487 286.487 0 00-86.805 42.668c5.127 3.393 7.055 4.64 11.814 7.817 11.568 7.72 34.134 22.845 57.494 39.615 24.278 17.427 55.353 40.8 88.623 69.96 56.774 49.762 118.964 115.43 183.31 194.07 29.288 35.794 57.49 72.412 82.886 106.138 25.937 34.445 48.545 65.308 66.084 88.83 19.005 25.488 32.52 43.022 43.033 56.38 10.316 13.11 18.57 23.26 27.836 34.608 5.503 1.414 10.925 2.765 15.656 3.652 2.741.514 5.271.876 7.383 1.133a160.022 160.022 0 006.604.644v-121.566a8.8 8.8 0 01-.045.006 8.8 8.8 0 01-3.028-.414 8.8 8.8 0 01-3.139-.431l-11.359-8.82-45.441-35.284a8.8 8.8 0 01-3.303-5.63 1497.526 1497.526 0 00-47.6-210.184c-10.588-34.878-23.313-71.64-40.287-106.02-16.232-32.877-36.553-64.033-63.334-90.254-44.374-43.447-104.86-70.603-168.152-77.557a296.577 296.577 0 00-29.969-1.757zm831.317 0c-9.996.081-20.004.662-29.971 1.757-63.293 6.954-123.778 34.11-168.152 77.557-26.781 26.221-47.102 57.377-63.334 90.254-16.975 34.38-29.699 71.142-40.287 106.02a1497.494 1497.494 0 00-47.6 210.183 8.8 8.8 0 01-3.303 5.63l-45.441 35.284-11.36 8.82a8.8 8.8 0 01-3.101.42 8.8 8.8 0 01-3.11.42v121.567c.336-.026.742-.058 1.237-.1 1.208-.101 3.099-.269 5.367-.545 2.112-.257 4.64-.619 7.38-1.133 4.732-.887 10.155-2.238 15.657-3.652 9.266-11.349 17.52-21.498 27.836-34.607 10.513-13.359 24.028-30.893 43.033-56.381 17.539-23.522 40.15-54.385 66.086-88.83 25.396-33.726 53.598-70.344 82.887-106.139 64.346-78.638 126.532-144.307 183.307-194.068 33.27-29.161 64.346-52.534 88.623-69.961 23.36-16.77 45.928-31.895 57.496-39.615 4.76-3.178 6.688-4.424 11.816-7.817a286.47 286.47 0 00-86.805-42.668 303.691 303.691 0 00-88.261-12.396zm-1021.18 66.379c-.79.66-1.676 1.21-2.457 1.878-46.142 39.491-75.855 91.615-93.03 141.04-18.048 51.94-25.648 109.19-24.859 169.855 1.53 117.553 34.598 236.597 97.235 340.232 55.72 30.095 115.465 51.412 176.39 63.498a629.398 629.398 0 00161.487 10.791 8.8 8.8 0 013.355 17.125l-17.46 5.873c-14.262 28.522-24.578 57.137-31.849 85.032 4.397-1.652 8.893-3.418 13.62-5.442 10.487-4.49 21.552-9.77 33.015-15.603 22.721-11.56 46.231-24.886 68.479-37.47 23.055-13.043 45.462-25.684 67.273-37.018 23.72-12.327 44.584-21.97 62.803-28.416 21.692-7.676 39.15-10.593 51.992-11.989 11.36-1.234 21.6-1.475 26.889-1.568 4.108-.072 9.136-.092 12.636-.092v-88.553a160.175 160.175 0 01-8.73-.814 134.387 134.387 0 01-8.498-1.305c-6.234-1.169-13.333-3.01-19.606-4.63a8.799 8.799 0 01-4.615-2.954c-10.032-12.283-18.765-22.993-29.86-37.09-10.615-13.489-24.224-31.145-43.312-56.744-17.61-23.618-40.183-54.435-66.035-88.765-25.32-33.627-53.365-70.038-82.447-105.58-63.91-78.106-125.43-143.018-181.287-191.977-32.698-28.66-63.283-51.67-87.285-68.9-23.104-16.585-45.464-31.57-57.004-39.274-6.774-4.521-10.076-6.674-16.84-11.14zm1211.041 0c-6.765 4.466-10.068 6.619-16.842 11.14-11.54 7.703-33.898 22.689-57.002 39.274-24.002 17.23-54.587 40.24-87.285 68.9-55.857 48.959-117.377 113.871-181.287 191.977-29.082 35.542-57.128 71.953-82.45 105.58-25.851 34.33-48.424 65.147-66.034 88.765-19.088 25.599-32.697 43.255-43.313 56.744-11.094 14.097-19.827 24.807-29.86 37.09a8.799 8.799 0 01-4.615 2.953c-6.272 1.62-13.369 3.462-19.603 4.631-3.19.599-6.104 1.013-8.5 1.305a160.196 160.196 0 01-8.729.814v88.553c3.5.002 8.527.02 12.635.092 5.29.093 15.529.334 26.889 1.568 12.841 1.396 30.3 4.313 51.992 11.989 18.22 6.447 39.083 16.09 62.803 28.416 21.81 11.334 44.218 23.975 67.273 37.017 22.248 12.585 45.76 25.91 68.48 37.47 11.464 5.833 22.526 11.114 33.014 15.604 4.728 2.025 9.226 3.79 13.623 5.442-7.27-27.895-17.588-56.51-31.85-85.032l-17.46-5.873a8.8 8.8 0 013.355-17.125 629.394 629.394 0 00161.487-10.79c60.925-12.087 120.669-33.404 176.39-63.499 62.637-103.635 95.705-222.679 97.235-340.232.79-60.665-6.811-117.915-24.86-169.855-17.174-49.425-46.888-101.549-93.029-141.04-.781-.668-1.668-1.219-2.457-1.878zm-1048.77 212.013a8.799 8.799 0 017.377 14.49c-1.445 1.692-7.8 9.111-12.69 14.961-4.563 5.462-11.447 13.814-18.192 22.9-9.952 13.406-18.693 27.136-25.94 42.231-7.264 15.132-13.324 32.258-18.871 51.219-3.752 12.825-7.01 25.648-9.115 34.092-2.255 9.047-5.07 20.75-5.707 23.39a8.8 8.8 0 01-17.11-4.129c.629-2.604 3.466-14.39 5.74-23.517 2.118-8.495 5.444-21.6 9.3-34.777 5.697-19.476 12.071-37.59 19.898-53.895 7.844-16.34 17.229-31.033 27.674-45.103 7.052-9.501 14.196-18.164 18.818-23.696 4.968-5.945 11.407-13.46 12.816-15.11a8.772 8.772 0 016.002-3.056zm886.499 0a8.772 8.772 0 016.001 3.057c1.41 1.65 7.849 9.164 12.817 15.11 4.622 5.531 11.767 14.194 18.82 23.695 10.445 14.07 19.828 28.762 27.672 45.103 7.827 16.305 14.201 34.419 19.899 53.895 3.854 13.177 7.18 26.282 9.298 34.777 2.275 9.127 5.112 20.913 5.74 23.517a8.8 8.8 0 01-17.109 4.13c-.637-2.64-3.452-14.344-5.707-23.391-2.104-8.444-5.363-21.267-9.115-34.092-5.547-18.961-11.607-36.087-18.871-51.219-7.247-15.095-15.988-28.825-25.94-42.23-6.745-9.086-13.63-17.439-18.193-22.9-4.888-5.85-11.244-13.27-12.69-14.962a8.8 8.8 0 01.973-12.406 8.771 8.771 0 016.405-2.084zm-883.2 303.074c2.557.083 14.14.445 23.178.813 9.99.406 26.204 1.15 42.775 2.809 17.638 1.765 34.425 4.409 50.784 8.431 19.127 4.704 38.212 11.428 57.691 19.43 13.173 5.411 25.79 11.118 33.936 14.846 8.749 4.004 19.948 9.242 22.425 10.398a8.802 8.802 0 014.254 11.697c-2.055 4.404-7.293 6.307-11.697 4.252-2.51-1.171-13.632-6.373-22.307-10.344-8.094-3.704-20.457-9.294-33.299-14.57-18.975-7.795-37.195-14.188-55.207-18.617-15.38-3.782-31.325-6.309-48.334-8.012-16.027-1.604-31.81-2.33-41.738-2.734-8.943-.364-20.429-.723-23.027-.807a8.8 8.8 0 01.566-17.591zm879.9 0a8.8 8.8 0 01.566 17.592c-2.597.084-14.083.443-23.026.807-9.929.404-25.711 1.13-41.739 2.734-17.009 1.703-32.952 4.23-48.334 8.012-18.011 4.43-36.23 10.822-55.207 18.617-12.841 5.275-25.204 10.866-33.298 14.57-8.675 3.97-19.796 9.173-22.307 10.344-4.404 2.055-9.642.152-11.697-4.252a8.802 8.802 0 014.254-11.697c2.477-1.156 13.676-6.394 22.425-10.398 8.146-3.728 20.763-9.435 33.936-14.846 19.48-8.002 38.564-14.726 57.691-19.43 16.359-4.022 33.148-6.666 50.786-8.431 16.571-1.66 32.783-2.403 42.773-2.809 9.037-.368 20.621-.73 23.178-.813zM437.418 1517.444c.239 1.74.317 2.368.541 3.967 1.14 8.119 4.61 34.186 12.053 61.447 6.972 25.537 17.228 53.145 30.274 87.524 1.998.734 3.827 1.367 5.771 1.937 3.01.884 6.397 1.648 11.023 2.31 4.727.678 10.712 1.245 18.797 1.718 8.282.483 18.609.858 31.631 1.16 19.038.44 34.161.165 48.115-.453-3.128-5.11-6.12-10.29-8.789-15.645-8.115-16.289-14.009-33.94-18.789-52.658-3.231-12.655-5.765-25.132-7.35-33.186-1.499-7.62-3-15.748-3.714-19.6a650.516 650.516 0 01-119.563-38.52zm1172.993 0a650.533 650.533 0 01-119.561 38.522c-.715 3.851-2.216 11.979-3.715 19.6-1.584 8.053-4.118 20.53-7.35 33.185-4.78 18.717-10.673 36.369-18.789 52.658-2.668 5.355-5.66 10.534-8.789 15.645 13.955.618 29.078.893 48.116.453 13.022-.302 23.35-.677 31.63-1.16 8.086-.473 14.069-1.04 18.795-1.717 4.627-.663 8.015-1.427 11.026-2.31 1.944-.571 3.773-1.204 5.771-1.938 13.045-34.379 23.302-61.987 30.274-87.524 7.443-27.261 10.91-53.328 12.05-61.447.225-1.599.303-2.226.542-3.967zm-586.497 30.254l-.293.006-.693.018c-.593.015-3.594.115-6.707.255-3.307.15-7.886.391-13.27.895-7.136.668-15.862 1.8-28.359 4.035-6.348 1.135-11.427 2.109-16.12 3.154a176.508 176.508 0 00-9.05 2.252c-1.492.416-3.048.872-4.672 1.383-4.154 1.308-8.695 2.951-14.054 5.256-4.932 2.121-10.433 4.747-17.022 8.164-13.39 6.942-23.061 13.246-31.094 19.2-6.308 4.675-11.79 9.298-15.712 12.679a476.63 476.63 0 00-7.813 6.877c-.422.386-.574.54-.687.646-2.07 1.949-4.993-1.157-2.922-3.105.115-.108.275-.248.687-.647.909-.878 3.587-3.582 7.434-7.357 3.692-3.624 9.018-8.768 15.172-13.951 7.89-6.647 17.551-13.755 31.054-21.465a328.736 328.736 0 0111.922-6.486c-13.29 5.568-27.541 12.109-44.004 20.664-21.49 11.168-43.632 23.658-66.724 36.72-22.17 12.541-46.032 26.066-69.164 37.836-11.699 5.953-23.126 11.413-34.069 16.098a295.36 295.36 0 01-25.148 9.436c-8.544 40.434-11.022 78.914-9.498 112.638a433.038 433.038 0 006.31 56.735c8.245 46.064 22.975 85.422 38.36 116.738 2.822 5.744 5.658 10.926 8.486 16.123 5.47 4.686 9.655 8.518 19.578 16.13 30.365 23.294 71.013 61.276 138.12 78.991 67.31 17.769 139.952 16.018 139.952 16.018v-195.395a8.521 8.521 0 01-1.843.111 728.761 728.761 0 01-13.408-.746c-1.397-.09-3.058-.199-4.91-.328-6.479-.45-17.89-1.309-31.637-2.853-21.606-2.428-52.053-6.842-81.125-15.27-13.618-3.947-24.79-7.634-34.34-11.265-10.084-3.835-18.136-7.524-25.049-11.18-6.817-3.605-13.16-7.52-19.89-12.174-6.126-4.235-12.081-8.731-18.952-13.914-2.072-1.563-3.248-3.857-3.14-6.12.92-19.292 2.124-39.07 2.279-45.85.06-2.641 0-4.177 0-5.012l5.25-5.25 5.25 5.25c0 .835-.06 2.37 0 5.011.143 6.299 1.192 23.812 2.078 41.735 5.884 3.998 10.974 7.41 16.137 10.642 6.518 4.08 12.458 7.425 18.757 10.56 6.383 3.178 13.87 6.494 23.4 10.046 9.056 3.374 19.781 6.899 33.083 10.76 27.687 8.036 57.381 12.494 78.226 14.955a712.294 712.294 0 0030.885 2.96c1.817.134 3.426.244 4.797.332 2.422.157 4.497.28 6.123.372 3.52.197 6.736.347 6.998.359.35.017.694.056 1.032.113v-333.785zm.002 0v333.785a8.612 8.612 0 011.032-.113 712.245 712.245 0 0013.121-.73c1.371-.09 2.978-.199 4.795-.333a712.325 712.325 0 0030.884-2.96c20.846-2.46 50.54-6.92 78.227-14.956 13.302-3.86 24.029-7.385 33.084-10.76 9.531-3.551 17.015-6.867 23.398-10.044 6.3-3.136 12.24-6.48 18.758-10.56 5.163-3.233 10.253-6.645 16.137-10.643.886-17.923 1.935-35.436 2.078-41.735.06-2.64 0-4.176 0-5.011l5.252-5.25 5.25 5.25c0 .835-.06 2.37 0 5.011.155 6.78 1.359 26.559 2.28 45.852.107 2.262-1.071 4.556-3.143 6.119-6.87 5.183-12.824 9.68-18.95 13.914-6.73 4.653-13.073 8.569-19.89 12.174-6.913 3.656-14.965 7.345-25.049 11.18-9.55 3.63-20.724 7.318-34.342 11.265-29.072 8.428-59.517 12.842-81.123 15.27a747.36 747.36 0 01-31.638 2.853c-1.853.129-3.514.238-4.91.328-2.48.161-4.604.286-6.27.38-3.605.202-6.895.355-7.137.367a8.54 8.54 0 01-1.844-.112v195.395s72.642 1.751 139.954-16.018c67.106-17.715 107.754-55.697 138.119-78.99 9.923-7.613 14.107-11.445 19.578-16.131 2.828-5.197 5.664-10.379 8.486-16.123 15.385-31.316 30.115-70.674 38.36-116.738a433.041 433.041 0 006.31-56.735c1.524-33.724-.955-72.204-9.498-112.638a295.326 295.326 0 01-25.15-9.436c-10.943-4.685-22.37-10.145-34.069-16.098-23.132-11.77-46.994-25.295-69.164-37.836-23.092-13.063-45.232-25.552-66.722-36.72-16.46-8.554-30.711-15.094-44-20.662a329.265 329.265 0 0111.916 6.484c13.502 7.71 23.165 14.818 31.056 21.465 6.154 5.183 11.478 10.327 15.17 13.951 3.847 3.775 6.525 6.48 7.434 7.358.412.398.572.538.687.646 2.07 1.948-.851 5.054-2.922 3.105-.113-.107-.265-.26-.687-.646a472.55 472.55 0 00-7.81-6.877c-3.923-3.381-9.407-8.004-15.716-12.68-8.032-5.953-17.703-12.257-31.093-19.199-6.59-3.417-12.088-6.043-17.02-8.164-5.36-2.305-9.9-3.948-14.054-5.256a145.603 145.603 0 00-4.674-1.383 176.42 176.42 0 00-9.047-2.252c-4.694-1.045-9.775-2.019-16.123-3.154-12.498-2.235-21.22-3.367-28.358-4.035a271.631 271.631 0 00-13.27-.895c-3.113-.14-6.115-.24-6.708-.255l-.694-.018-.29-.006zm-448.298 12.084c.827 4.415 1.405 7.596 2.347 12.387 1.57 7.977 4.027 20.063 7.133 32.226 4.589 17.97 10.108 34.35 17.49 49.166 3.81 7.647 8.23 15.054 13.147 22.356 17.125-1.604 33.865-4.485 52.056-9.512 7.4-31.282 18.284-63.54 34.063-95.78a648.088 648.088 0 01-126.236-10.843zm896.597 0a648.097 648.097 0 01-126.238 10.844c15.778 32.239 26.663 64.497 34.063 95.78 18.19 5.026 34.931 7.907 52.056 9.51 4.918-7.3 9.337-14.708 13.147-22.355 7.382-14.817 12.901-31.196 17.49-49.166 3.106-12.163 5.565-24.249 7.135-32.226.942-4.791 1.52-7.972 2.347-12.387zm-529.482 80.67c.77-.072 1.612.102 2.47.615.428.255 2.313 1.382 3.79 2.256 3.913 2.317 9.54 5.609 15.66 8.555 6.134 2.953 13.053 5.701 17.918 7.61 1.832.718 4.194 1.634 4.726 1.841 4.971 1.933 2.07 9.39-2.9 7.457-.526-.205-2.902-1.127-4.748-1.851-4.85-1.903-12.027-4.748-18.465-7.848-6.454-3.108-12.34-6.553-16.268-8.88-1.493-.883-3.394-2.02-3.814-2.27-3.72-2.222-1.71-7.173 1.63-7.485zm162.365 0c3.34.312 5.351 5.263 1.63 7.484-.419.251-2.32 1.388-3.813 2.272-3.929 2.325-9.814 5.771-16.268 8.879-6.438 3.1-13.616 5.945-18.465 7.848-1.846.724-4.222 1.646-4.748 1.851-4.97 1.933-7.871-5.524-2.9-7.457.532-.207 2.896-1.123 4.728-1.842 4.865-1.908 11.782-4.656 17.916-7.61 6.119-2.945 11.75-6.237 15.662-8.554 1.477-.874 3.36-2 3.787-2.256.859-.513 1.7-.687 2.471-.615zm-441.553 45.256c-12.322 3.025-24.119 4.949-35.9 6.422 1.077 1.37 2.09 2.745 3.201 4.115 7.652 9.441 15.598 18.25 20.877 24.023 2.303 2.519 3.619 3.9 5.992 6.454 1.37-13.386 3.137-27.006 5.83-41.014zm720.74 0c2.693 14.008 4.462 27.628 5.83 41.014 2.374-2.554 3.69-3.935 5.993-6.454 5.28-5.772 13.227-14.582 20.879-24.023 1.11-1.37 2.123-2.743 3.199-4.113-11.782-1.473-23.577-3.399-35.9-6.424z"
          display="inline"
        ></path>
      </g>
    </svg>