<?xml version="1.0" encoding="UTF-8" standalone="no"?>
<!-- Created with Inkscape (http://www.inkscape.org/) -->

<svg
   version="1.1"
   id="svg1"
   width="1940.4474"
   height="1646.9341"
   viewBox="0 0 1940.4474 1646.9341"
   sodipodi:docname="Logo_v1.svg"
   inkscape:version="1.3 (0e150ed6c4, 2023-07-21)"
   xmlns:inkscape="http://www.inkscape.org/namespaces/inkscape"
   xmlns:sodipodi="http://sodipodi.sourceforge.net/DTD/sodipodi-0.dtd"
   xmlns="http://www.w3.org/2000/svg"
   xmlns:svg="http://www.w3.org/2000/svg">
  <defs
     id="defs1">
    <inkscape:path-effect
       effect="powerstroke"
       id="path-effect104"
       is_visible="true"
       lpeversion="1.3"
       scale_width="1"
       interpolator_type="CentripetalCatmullRom"
       interpolator_beta="0.2"
       start_linecap_type="round"
       end_linecap_type="round"
       offset_points="0.2,4 | 1,4 | 1.8,4 | 2.2,4 | 3,4 | 3.8,4"
       linejoin_type="round"
       miter_limit="4"
       not_jump="false"
       sort_points="true"
       message="&lt;b&gt;Ctrl + click&lt;/b&gt; on existing node and move it" />
    <inkscape:path-effect
       effect="powerstroke"
       id="path-effect103"
       is_visible="true"
       lpeversion="1.3"
       scale_width="1"
       interpolator_type="CentripetalCatmullRom"
       interpolator_beta="0.2"
       start_linecap_type="peak"
       end_linecap_type="round"
       offset_points="0.098533817,5.250503 | 1.5,8.5 | 2.8,8.5 | 3.2,8.5 | 4.5,8.5 | 5.8,8.5"
       linejoin_type="round"
       miter_limit="4"
       not_jump="false"
       sort_points="true"
       message="&lt;b&gt;Ctrl + click&lt;/b&gt; on existing node and move it" />
    <inkscape:path-effect
       effect="powerstroke"
       id="path-effect102"
       is_visible="true"
       lpeversion="1.3"
       scale_width="1"
       interpolator_type="CentripetalCatmullRom"
       interpolator_beta="0.2"
       start_linecap_type="round"
       end_linecap_type="round"
       offset_points="0.2,8.8000002 | 1,8.8000002 | 1.8,8.8000002 | 2.2,8.8000002 | 3,8.8000002 | 3.8,8.8000002"
       linejoin_type="round"
       miter_limit="4"
       not_jump="false"
       sort_points="true"
       message="&lt;b&gt;Ctrl + click&lt;/b&gt; on existing node and move it" />
    <inkscape:path-effect
       effect="powerstroke"
       id="path-effect101"
       is_visible="true"
       lpeversion="1.3"
       scale_width="1"
       interpolator_type="CentripetalCatmullRom"
       interpolator_beta="0.2"
       start_linecap_type="round"
       end_linecap_type="round"
       offset_points="0.2,8.8000002 | 1,8.8000002 | 1.8,8.8000002 | 2.2,8.8000002 | 3,8.8000002 | 3.8,8.8000002"
       linejoin_type="round"
       miter_limit="4"
       not_jump="false"
       sort_points="true"
       message="&lt;b&gt;Ctrl + click&lt;/b&gt; on existing node and move it" />
    <inkscape:path-effect
       effect="powerstroke"
       id="path-effect100"
       is_visible="true"
       lpeversion="1.3"
       scale_width="1"
       interpolator_type="CentripetalCatmullRom"
       interpolator_beta="0.2"
       start_linecap_type="round"
       end_linecap_type="round"
       offset_points="0.2,8.8000002 | 1,8.8000002 | 1.8,8.8000002 | 2.2,8.8000002 | 3,8.8000002 | 3.8,8.8000002"
       linejoin_type="round"
       miter_limit="4"
       not_jump="false"
       sort_points="true"
       message="&lt;b&gt;Ctrl + click&lt;/b&gt; on existing node and move it" />
    <inkscape:path-effect
       effect="powerstroke"
       id="path-effect99"
       is_visible="true"
       lpeversion="1.3"
       scale_width="1"
       interpolator_type="CentripetalCatmullRom"
       interpolator_beta="0.2"
       start_linecap_type="square"
       end_linecap_type="round"
       offset_points="0.2,8.8000002 | 3.5,8.8000002 | 6.8,8.8000002 | 7.2,8.8000002 | 10.5,8.8000002 | 13.8,8.8000002"
       linejoin_type="round"
       miter_limit="4"
       not_jump="false"
       sort_points="true"
       message="&lt;b&gt;Ctrl + click&lt;/b&gt; on existing node and move it" />
    <inkscape:path-effect
       effect="powerstroke"
       id="path-effect98"
       is_visible="true"
       lpeversion="1.3"
       scale_width="1"
       interpolator_type="CentripetalCatmullRom"
       interpolator_beta="0.2"
       start_linecap_type="square"
       end_linecap_type="square"
       offset_points="0.2,8.8000002 | 1,8.8000002 | 1.8,8.8000002 | 2.2,8.8000002 | 3,8.8000002 | 3.8,8.8000002"
       linejoin_type="round"
       miter_limit="4"
       not_jump="false"
       sort_points="true"
       message="&lt;b&gt;Ctrl + click&lt;/b&gt; on existing node and move it" />
    <inkscape:path-effect
       effect="mirror_symmetry"
       start_point="1023.9145,446.69322"
       end_point="1023.9145,2093.6273"
       center_point="1023.9145,1270.1603"
       id="path-effect97"
       is_visible="true"
       lpeversion="1.2"
       lpesatellites=""
       mode="vertical"
       discard_orig_path="false"
       fuse_paths="true"
       oposite_fuse="false"
       split_items="false"
       split_open="false"
       link_styles="false" />
    <inkscape:path-effect
       effect="bspline"
       id="path-effect95"
       is_visible="true"
       lpeversion="1.3"
       weight="33.333333"
       steps="2"
       helper_size="0"
       apply_no_weight="true"
       apply_with_weight="true"
       only_selected="false"
       uniform="false" />
    <inkscape:path-effect
       effect="mirror_symmetry"
       start_point="1023.9145,446.69322"
       end_point="1023.9145,2093.6273"
       center_point="1023.9145,1270.1603"
       id="path-effect93"
       is_visible="true"
       lpeversion="1.2"
       lpesatellites=""
       mode="vertical"
       discard_orig_path="false"
       fuse_paths="false"
       oposite_fuse="false"
       split_items="false"
       split_open="false"
       link_styles="false" />
    <inkscape:path-effect
       effect="bspline"
       id="path-effect91"
       is_visible="true"
       lpeversion="1.3"
       weight="33.333333"
       steps="2"
       helper_size="0"
       apply_no_weight="true"
       apply_with_weight="true"
       only_selected="false"
       uniform="false" />
    <inkscape:path-effect
       effect="mirror_symmetry"
       start_point="1023.9145,446.69322"
       end_point="1023.9145,2093.6273"
       center_point="1023.9145,1270.1603"
       id="path-effect89"
       is_visible="true"
       lpeversion="1.2"
       lpesatellites=""
       mode="vertical"
       discard_orig_path="false"
       fuse_paths="true"
       oposite_fuse="false"
       split_items="false"
       split_open="false"
       link_styles="false" />
    <inkscape:path-effect
       effect="powerstroke"
       id="path-effect87"
       is_visible="true"
       lpeversion="1.3"
       scale_width="1"
       interpolator_type="CentripetalCatmullRom"
       interpolator_beta="0.2826087"
       start_linecap_type="square"
       end_linecap_type="round"
       offset_points="0.016670781,4.7858618 | 1.4129789,4.8971659 | 2.9855886,2.1321021"
       linejoin_type="round"
       miter_limit="4"
       not_jump="false"
       sort_points="true"
       message="&lt;b&gt;Ctrl + click&lt;/b&gt; on existing node and move it" />
    <inkscape:path-effect
       effect="bspline"
       id="path-effect85"
       is_visible="true"
       lpeversion="1.3"
       weight="11.8333"
       steps="2"
       helper_size="0"
       apply_no_weight="true"
       apply_with_weight="true"
       only_selected="true"
       uniform="false" />
    <inkscape:path-effect
       effect="mirror_symmetry"
       start_point="1023.9145,446.69322"
       end_point="1023.9145,2093.6273"
       center_point="1023.9145,1270.1603"
       id="path-effect83"
       is_visible="true"
       lpeversion="1.2"
       lpesatellites=""
       mode="vertical"
       discard_orig_path="false"
       fuse_paths="true"
       oposite_fuse="false"
       split_items="false"
       split_open="false"
       link_styles="false" />
    <inkscape:path-effect
       effect="bspline"
       id="path-effect81"
       is_visible="true"
       lpeversion="1.3"
       weight="33.333333"
       steps="2"
       helper_size="0"
       apply_no_weight="true"
       apply_with_weight="true"
       only_selected="false"
       uniform="false" />
    <inkscape:path-effect
       effect="mirror_symmetry"
       start_point="1023.9145,446.69322"
       end_point="1023.9145,2093.6273"
       center_point="1023.9145,1270.1603"
       id="path-effect79"
       is_visible="true"
       lpeversion="1.2"
       lpesatellites=""
       mode="vertical"
       discard_orig_path="false"
       fuse_paths="true"
       oposite_fuse="false"
       split_items="false"
       split_open="false"
       link_styles="false" />
    <inkscape:path-effect
       effect="bspline"
       id="path-effect77"
       is_visible="true"
       lpeversion="1.3"
       weight="33.333333"
       steps="2"
       helper_size="0"
       apply_no_weight="true"
       apply_with_weight="true"
       only_selected="false"
       uniform="false" />
    <inkscape:path-effect
       effect="mirror_symmetry"
       start_point="1023.9145,446.69322"
       end_point="1023.9145,2093.6273"
       center_point="1023.9145,1270.1603"
       id="path-effect75"
       is_visible="true"
       lpeversion="1.2"
       lpesatellites=""
       mode="vertical"
       discard_orig_path="false"
       fuse_paths="true"
       oposite_fuse="false"
       split_items="false"
       split_open="false"
       link_styles="false" />
    <inkscape:path-effect
       effect="bspline"
       id="path-effect73"
       is_visible="true"
       lpeversion="1.3"
       weight="33.333333"
       steps="2"
       helper_size="0"
       apply_no_weight="true"
       apply_with_weight="true"
       only_selected="false"
       uniform="false" />
    <inkscape:path-effect
       effect="mirror_symmetry"
       start_point="1023.9145,446.69322"
       end_point="1023.9145,2093.6273"
       center_point="1023.9145,1270.1603"
       id="path-effect71"
       is_visible="true"
       lpeversion="1.2"
       lpesatellites=""
       mode="vertical"
       discard_orig_path="false"
       fuse_paths="true"
       oposite_fuse="false"
       split_items="false"
       split_open="false"
       link_styles="false" />
    <inkscape:path-effect
       effect="bspline"
       id="path-effect69"
       is_visible="true"
       lpeversion="1.3"
       weight="33.333333"
       steps="2"
       helper_size="0"
       apply_no_weight="true"
       apply_with_weight="true"
       only_selected="false"
       uniform="false" />
    <inkscape:path-effect
       effect="mirror_symmetry"
       start_point="1023.9145,446.69322"
       end_point="1023.9145,2093.6273"
       center_point="1023.9145,1270.1603"
       id="path-effect67"
       is_visible="true"
       lpeversion="1.2"
       lpesatellites=""
       mode="vertical"
       discard_orig_path="false"
       fuse_paths="false"
       oposite_fuse="false"
       split_items="false"
       split_open="false"
       link_styles="false" />
    <inkscape:path-effect
       effect="bspline"
       id="path-effect65"
       is_visible="true"
       lpeversion="1.3"
       weight="33.333333"
       steps="2"
       helper_size="0"
       apply_no_weight="true"
       apply_with_weight="true"
       only_selected="false"
       uniform="false" />
    <inkscape:path-effect
       effect="mirror_symmetry"
       start_point="1023.9145,446.69322"
       end_point="1023.9145,2093.6273"
       center_point="1023.9145,1270.1603"
       id="path-effect63"
       is_visible="true"
       lpeversion="1.2"
       lpesatellites=""
       mode="vertical"
       discard_orig_path="false"
       fuse_paths="true"
       oposite_fuse="false"
       split_items="false"
       split_open="false"
       link_styles="false" />
    <inkscape:path-effect
       effect="powerstroke"
       id="path-effect61"
       is_visible="true"
       lpeversion="1.3"
       scale_width="1"
       interpolator_type="CentripetalCatmullRom"
       interpolator_beta="0.2"
       start_linecap_type="square"
       end_linecap_type="peak"
       offset_points="0.2,8.8000002 | 3.5,8.8000002 | 6.8,8.8000002"
       linejoin_type="round"
       miter_limit="4"
       not_jump="false"
       sort_points="true"
       message="&lt;b&gt;Ctrl + click&lt;/b&gt; on existing node and move it" />
    <inkscape:path-effect
       effect="bspline"
       id="path-effect59"
       is_visible="true"
       lpeversion="1.3"
       weight="33.333333"
       steps="2"
       helper_size="0"
       apply_no_weight="true"
       apply_with_weight="true"
       only_selected="false"
       uniform="false" />
    <inkscape:path-effect
       effect="mirror_symmetry"
       start_point="1023.9145,446.69322"
       end_point="1023.9145,2093.6273"
       center_point="1023.9145,1270.1603"
       id="path-effect57"
       is_visible="true"
       lpeversion="1.2"
       lpesatellites=""
       mode="vertical"
       discard_orig_path="false"
       fuse_paths="false"
       oposite_fuse="false"
       split_items="true"
       split_open="false"
       link_styles="false" />
    <inkscape:path-effect
       effect="powerstroke"
       id="path-effect55"
       is_visible="true"
       lpeversion="1.3"
       scale_width="1"
       interpolator_type="CentripetalCatmullRom"
       interpolator_beta="0.2"
       start_linecap_type="round"
       end_linecap_type="round"
       offset_points="0.2,8.8000002 | 6,8.8000002 | 11.8,8.8000002"
       linejoin_type="round"
       miter_limit="4"
       not_jump="false"
       sort_points="true"
       message="&lt;b&gt;Ctrl + click&lt;/b&gt; on existing node and move it" />
    <inkscape:path-effect
       effect="spiro"
       id="path-effect53"
       is_visible="true"
       lpeversion="1" />
    <inkscape:path-effect
       effect="spiro"
       id="path-effect33"
       is_visible="true"
       lpeversion="1" />
    <inkscape:path-effect
       effect="knot"
       id="path-effect32"
       is_visible="true"
       lpeversion="1"
       switcher_size="15"
       interruption_width="3"
       prop_to_stroke_width="true"
       add_stroke_width="inkscape_1.0_and_up"
       both="false"
       inverse_width="false"
       add_other_stroke_width="inkscape_1.0_and_up"
       crossing_points_vector="" />
    <inkscape:path-effect
       effect="mirror_symmetry"
       start_point="1023.9145,446.69322"
       end_point="1023.9145,2093.6273"
       center_point="1023.9145,1270.1603"
       id="path-effect31"
       is_visible="true"
       lpeversion="1.2"
       lpesatellites=""
       mode="vertical"
       discard_orig_path="false"
       fuse_paths="true"
       oposite_fuse="false"
       split_items="false"
       split_open="false"
       link_styles="false" />
    <inkscape:path-effect
       effect="mirror_symmetry"
       start_point="1023.9145,446.69322"
       end_point="1023.9145,2093.6273"
       center_point="1023.9145,1270.1603"
       id="path-effect30"
       is_visible="true"
       lpeversion="1.2"
       lpesatellites=""
       mode="vertical"
       discard_orig_path="false"
       fuse_paths="true"
       oposite_fuse="false"
       split_items="false"
       split_open="false"
       link_styles="false" />
    <inkscape:path-effect
       effect="mirror_symmetry"
       start_point="1023.9145,446.69322"
       end_point="1023.9145,2093.6273"
       center_point="1023.9145,1270.1603"
       id="path-effect29"
       is_visible="true"
       lpeversion="1.2"
       lpesatellites=""
       mode="vertical"
       discard_orig_path="false"
       fuse_paths="true"
       oposite_fuse="false"
       split_items="false"
       split_open="false"
       link_styles="false" />
    <filter
       id="selectable_hidder_filter"
       width="1"
       height="1"
       x="0"
       y="0"
       style="color-interpolation-filters:sRGB;"
       inkscape:label="LPE boolean visibility">
      <feComposite
         id="boolops_hidder_primitive"
         result="composite1"
         operator="arithmetic"
         in2="SourceGraphic"
         in="BackgroundImage" />
    </filter>
    <inkscape:path-effect
       effect="bool_op"
       operand-path=""
       id="path-effect28"
       is_visible="true"
       lpeversion="1"
       operation="diff"
       swap-operands="false"
       filltype-this="from-curve"
       filter=""
       filltype-operand="from-curve" />
    <inkscape:path-effect
       effect="mirror_symmetry"
       start_point="1023.9145,446.69322"
       end_point="1023.9145,2093.6273"
       center_point="1023.9145,1270.1603"
       id="path-effect27"
       is_visible="true"
       lpeversion="1.2"
       lpesatellites=""
       mode="vertical"
       discard_orig_path="false"
       fuse_paths="true"
       oposite_fuse="false"
       split_items="false"
       split_open="false"
       link_styles="false" />
    <inkscape:path-effect
       effect="mirror_symmetry"
       start_point="1023.9145,446.69322"
       end_point="1023.9145,2093.6273"
       center_point="1023.9145,1270.1603"
       id="path-effect26"
       is_visible="true"
       lpeversion="1.2"
       lpesatellites="#path39"
       mode="vertical"
       discard_orig_path="false"
       fuse_paths="false"
       oposite_fuse="false"
       split_items="true"
       split_open="false"
       link_styles="false" />
    <inkscape:path-effect
       effect="powerstroke"
       id="path-effect25"
       is_visible="true"
       lpeversion="1.3"
       scale_width="1"
       interpolator_type="CentripetalCatmullRom"
       interpolator_beta="0.2"
       start_linecap_type="round"
       end_linecap_type="round"
       offset_points="0.2,8.8000002 | 6,8.8000002 | 11.8,8.8000002"
       linejoin_type="round"
       miter_limit="4"
       not_jump="false"
       sort_points="true"
       message="&lt;b&gt;Ctrl + click&lt;/b&gt; on existing node and move it" />
    <inkscape:path-effect
       effect="mirror_symmetry"
       start_point="1023.9145,446.69322"
       end_point="1023.9145,2093.6273"
       center_point="1023.9145,1270.1603"
       id="path-effect17"
       is_visible="true"
       lpeversion="1.2"
       lpesatellites=""
       mode="vertical"
       discard_orig_path="false"
       fuse_paths="true"
       oposite_fuse="false"
       split_items="false"
       split_open="false"
       link_styles="false" />
    <inkscape:path-effect
       effect="mirror_symmetry"
       start_point="1023.9145,446.69322"
       end_point="1023.9145,2093.6273"
       center_point="1023.9145,1270.1603"
       id="path-effect3"
       is_visible="true"
       lpeversion="1.2"
       lpesatellites=""
       mode="vertical"
       discard_orig_path="false"
       fuse_paths="true"
       oposite_fuse="false"
       split_items="false"
       split_open="false"
       link_styles="false" />
    <inkscape:path-effect
       effect="mirror_symmetry"
       start_point="1023.9145,446.69322"
       end_point="1023.9145,2093.6273"
       center_point="1023.9145,1270.1603"
       id="path-effect2"
       is_visible="true"
       lpeversion="1.2"
       lpesatellites=""
       mode="vertical"
       discard_orig_path="false"
       fuse_paths="true"
       oposite_fuse="false"
       split_items="false"
       split_open="false"
       link_styles="false" />
    <inkscape:path-effect
       effect="mirror_symmetry"
       start_point="1023.9145,446.69322"
       end_point="1023.9145,2093.6273"
       center_point="1023.9145,1270.1603"
       id="path-effect1"
       is_visible="true"
       lpeversion="1.2"
       lpesatellites=""
       mode="vertical"
       discard_orig_path="false"
       fuse_paths="true"
       oposite_fuse="false"
       split_items="false"
       split_open="false"
       link_styles="false" />
    <inkscape:path-effect
       effect="powerstroke"
       id="path-effect24"
       is_visible="true"
       lpeversion="1.3"
       scale_width="1"
       interpolator_type="CentripetalCatmullRom"
       interpolator_beta="0.2"
       start_linecap_type="square"
       end_linecap_type="peak"
       offset_points="0.2,8.8000002 | 3.5,8.8000002 | 6.8,8.8000002"
       linejoin_type="round"
       miter_limit="4"
       not_jump="false"
       sort_points="true"
       message="&lt;b&gt;Ctrl + click&lt;/b&gt; on existing node and move it" />
    <inkscape:path-effect
       effect="bspline"
       id="path-effect23"
       is_visible="true"
       lpeversion="1.3"
       weight="33.333333"
       steps="2"
       helper_size="0"
       apply_no_weight="true"
       apply_with_weight="true"
       only_selected="false"
       uniform="false" />
    <inkscape:path-effect
       effect="mirror_symmetry"
       start_point="1023.9145,446.69322"
       end_point="1023.9145,2093.6273"
       center_point="1023.9145,1270.1603"
       id="path-effect22"
       is_visible="true"
       lpeversion="1.2"
       lpesatellites=""
       mode="vertical"
       discard_orig_path="false"
       fuse_paths="false"
       oposite_fuse="false"
       split_items="false"
       split_open="false"
       link_styles="false" />
    <inkscape:path-effect
       effect="mirror_symmetry"
       start_point="989.65,1644.5"
       end_point="985.84568,1665.0567"
       center_point="987.74784,1654.7785"
       id="path-effect21"
       is_visible="true"
       lpeversion="1.2"
       lpesatellites=""
       mode="free"
       discard_orig_path="false"
       fuse_paths="false"
       oposite_fuse="false"
       split_items="false"
       split_open="false"
       link_styles="false" />
    <inkscape:path-effect
       effect="mirror_symmetry"
       start_point="1023.9145,446.69322"
       end_point="1023.9145,2093.6273"
       center_point="1023.9145,1270.1603"
       id="path-effect20"
       is_visible="true"
       lpeversion="1.2"
       lpesatellites=""
       mode="vertical"
       discard_orig_path="false"
       fuse_paths="true"
       oposite_fuse="false"
       split_items="false"
       split_open="false"
       link_styles="false" />
    <inkscape:path-effect
       effect="bspline"
       id="path-effect19"
       is_visible="true"
       lpeversion="1.3"
       weight="33.333333"
       steps="2"
       helper_size="0"
       apply_no_weight="true"
       apply_with_weight="true"
       only_selected="false"
       uniform="false" />
    <inkscape:path-effect
       effect="bspline"
       id="path-effect18"
       is_visible="true"
       lpeversion="1.3"
       weight="33.333333"
       steps="2"
       helper_size="0"
       apply_no_weight="true"
       apply_with_weight="true"
       only_selected="false"
       uniform="false" />
    <inkscape:path-effect
       effect="bend_path"
       id="path-effect16"
       is_visible="true"
       lpeversion="1"
       bendpath="M 856.14512,1574.2989 H 1023.154"
       prop_scale="1"
       scale_y_rel="false"
       vertical="false"
       hide_knot="false" />
    <inkscape:path-effect
       effect="mirror_symmetry"
       start_point="1023.154,1536.5869"
       end_point="1023.154,1612.011"
       center_point="1023.154,1574.2989"
       id="path-effect15"
       is_visible="true"
       lpeversion="1.2"
       lpesatellites=""
       mode="free"
       discard_orig_path="false"
       fuse_paths="false"
       oposite_fuse="false"
       split_items="false"
       split_open="false"
       link_styles="false" />
    <inkscape:path-effect
       effect="powerstroke"
       id="path-effect14"
       is_visible="true"
       lpeversion="1.3"
       scale_width="1"
       interpolator_type="CentripetalCatmullRom"
       interpolator_beta="0.2826087"
       start_linecap_type="square"
       end_linecap_type="round"
       offset_points="0.016670781,4.7858618 | 1.4129789,4.8971659 | 2.9855886,2.1321021"
       linejoin_type="round"
       miter_limit="4"
       not_jump="false"
       sort_points="true"
       message="&lt;b&gt;Ctrl + click&lt;/b&gt; on existing node and move it" />
    <inkscape:path-effect
       effect="bspline"
       id="path-effect13"
       is_visible="true"
       lpeversion="1.3"
       weight="11.8333"
       steps="2"
       helper_size="0"
       apply_no_weight="true"
       apply_with_weight="true"
       only_selected="true"
       uniform="false" />
    <inkscape:path-effect
       effect="bspline"
       id="path-effect12"
       is_visible="true"
       lpeversion="1.3"
       weight="33.333333"
       steps="2"
       helper_size="0"
       apply_no_weight="true"
       apply_with_weight="true"
       only_selected="false"
       uniform="false" />
    <inkscape:path-effect
       effect="bspline"
       id="path-effect11"
       is_visible="true"
       lpeversion="1.3"
       weight="33.333333"
       steps="2"
       helper_size="0"
       apply_no_weight="true"
       apply_with_weight="true"
       only_selected="false"
       uniform="false" />
    <inkscape:path-effect
       effect="bspline"
       id="path-effect10"
       is_visible="true"
       lpeversion="1.3"
       weight="33.333333"
       steps="2"
       helper_size="0"
       apply_no_weight="true"
       apply_with_weight="true"
       only_selected="false"
       uniform="false" />
    <inkscape:path-effect
       effect="bspline"
       id="path-effect9"
       is_visible="true"
       lpeversion="1.3"
       weight="33.333333"
       steps="2"
       helper_size="0"
       apply_no_weight="true"
       apply_with_weight="true"
       only_selected="false"
       uniform="false" />
    <inkscape:path-effect
       effect="bspline"
       id="path-effect8"
       is_visible="true"
       lpeversion="1.3"
       weight="33.333333"
       steps="2"
       helper_size="0"
       apply_no_weight="true"
       apply_with_weight="true"
       only_selected="false"
       uniform="false" />
    <inkscape:path-effect
       effect="bspline"
       id="path-effect7"
       is_visible="true"
       lpeversion="1.3"
       weight="33.333333"
       steps="2"
       helper_size="0"
       apply_no_weight="true"
       apply_with_weight="true"
       only_selected="false"
       uniform="false" />
    <inkscape:path-effect
       effect="powerstroke"
       id="path-effect6"
       is_visible="true"
       lpeversion="1.3"
       scale_width="1"
       interpolator_type="CentripetalCatmullRom"
       interpolator_beta="0.75"
       start_linecap_type="round"
       end_linecap_type="round"
       offset_points="13.927808,12.478685"
       linejoin_type="spiro"
       miter_limit="4"
       not_jump="true"
       sort_points="true"
       message="&lt;b&gt;Ctrl + click&lt;/b&gt; on existing node and move it" />
    <inkscape:path-effect
       effect="simplify"
       id="path-effect5"
       is_visible="true"
       lpeversion="1.3"
       threshold="0.012"
       steps="1"
       smooth_angles="0"
       helper_size="0"
       simplify_individual_paths="false"
       simplify_just_coalesce="false"
       step="1" />
    <inkscape:path-effect
       effect="spiro"
       id="path-effect4"
       is_visible="true"
       lpeversion="1" />
  </defs>
  <sodipodi:namedview
     id="namedview1"
     pagecolor="#ffffff"
     bordercolor="#000000"
     borderopacity="0.25"
     inkscape:showpageshadow="2"
     inkscape:pageopacity="0.0"
     inkscape:pagecheckerboard="0"
     inkscape:deskcolor="#d1d1d1"
     inkscape:zoom="0.46241062"
     inkscape:cx="878.00752"
     inkscape:cy="777.44754"
     inkscape:window-width="1920"
     inkscape:window-height="1017"
     inkscape:window-x="-8"
     inkscape:window-y="-8"
     inkscape:window-maximized="1"
     inkscape:current-layer="g1" />
  <g
     inkscape:groupmode="layer"
     inkscape:label="Image"
     id="g1"
     transform="translate(-53.690813,-446.69322)">
    <path
       id="path3"
       style="display:inline;fill:#000000"
       inkscape:label="solid"
       d="M 1023.9135 446.74791 C 1023.9135 446.74791 872.34425 450.20176 711.91738 506.48033 C 711.532 513.26341 711.12716 520.38832 710.91542 524.06236 C 709.22494 553.39518 706.70996 596.07708 703.53456 634.1815 C 700.35754 672.30604 696.40644 707.20714 693.67714 730.90416 C 696.52769 706.47095 689.47103 767.02926 691.15566 752.59947 C 739.06264 766.0511 783.51752 790.68267 818.69081 825.12095 C 847.26811 853.10117 868.65345 886.05187 885.49355 920.16002 C 903.08611 955.7923 916.13521 993.60022 926.83925 1028.8573 C 950.17814 1105.7307 964.98277 1176.5319 974.4662 1238.035 L 1017.1361 1271.1659 L 1023.9135 1276.4276 L 1023.9135 446.74791 z M 1023.9174 446.74791 L 1023.9154 1276.4256 C 1025.8208 1274.9461 1026.883 1274.124 1030.6928 1271.1659 C 1038.3208 1265.2431 1053.3664 1253.5612 1073.3627 1238.035 C 1082.8462 1176.5318 1097.6513 1105.7307 1120.9896 1028.8573 C 1131.6938 993.60022 1144.7433 955.7923 1162.3353 920.16002 C 1179.1755 886.05187 1200.5606 853.10117 1229.1381 825.12095 C 1264.311 790.68267 1308.7665 766.0511 1356.6732 752.59947 C 1358.3579 767.02926 1351.3012 706.47095 1354.1518 730.90416 C 1351.4225 707.20714 1347.4714 672.30604 1344.2943 634.1815 C 1341.1189 596.07708 1338.6039 553.39518 1336.9135 524.06236 C 1336.7017 520.38832 1336.2969 513.26341 1335.9115 506.48033 C 1175.4846 450.20176 1023.9174 446.74791 1023.9174 446.74791 z M 693.90761 513.16978 C 648.33016 530.25206 602.48972 551.45751 559.5873 578.4608 C 359.58222 704.34634 397.22988 798.46666 397.22988 798.46666 C 397.22988 798.46666 364.98641 775.10146 294.28456 742.58384 C 201.31518 699.82482 123.98769 709.994 123.98769 709.994 C 123.98769 709.994 37.310468 801.18861 55.354875 1080.6112 C 78.390677 1437.3268 176.63613 1527.8983 176.63613 1527.8983 C 176.63613 1527.8983 236.63629 1577.3113 284.28456 1607.9003 C 331.93283 1638.4893 461.93691 1675.5487 461.93691 1675.5487 C 461.93691 1675.5487 491.34862 1745.5516 543.11464 1823.7889 C 585.18145 1887.3672 665.12815 1939.9954 694.77284 1958.2401 C 681.52401 1928.5285 669.35767 1893.3255 662.09316 1852.7342 C 658.68832 1833.7102 656.44145 1813.9828 655.5248 1793.6932 C 654.89742 1779.8066 655.07567 1765.0213 655.87636 1749.7713 C 655.05548 1749.3297 654.24561 1748.8472 653.57363 1748.1288 C 651.93709 1746.3793 644.47128 1738.4179 638.73378 1732.1444 C 633.39666 1726.3087 625.16382 1717.1875 617.17128 1707.326 C 613.62812 1702.9543 610.26601 1698.5205 607.00331 1694.0487 C 589.86879 1695.215 571.16331 1695.6585 547.09902 1695.1014 C 533.97881 1694.7976 523.42179 1694.4145 514.84902 1693.9139 C 506.49137 1693.4258 499.97631 1692.8237 494.58339 1692.0506 C 489.21119 1691.2805 484.99501 1690.3484 481.09902 1689.2049 C 477.27303 1688.0819 473.86676 1686.7854 470.34511 1685.4491 C 467.9922 1684.5563 466.13516 1682.6982 465.24159 1680.3456 C 451.58246 1644.3833 440.51763 1614.9094 433.03261 1587.494 C 425.25289 1558.9993 421.65558 1531.8655 420.53066 1523.8573 C 419.68882 1517.8644 418.57778 1509.5349 418.51308 1509.0526 C 418.50331 1508.9797 418.53469 1508.9143 418.52675 1508.8417 C 407.18013 1503.494 395.83893 1498.1212 384.78261 1492.0956 A 8.8006473 8.7997985 88.616009 0 1 381.47792 1488.9471 C 316.38222 1382.1082 282.03068 1259.188 280.45058 1137.7635 C 279.64067 1075.5258 287.42479 1016.173 306.28261 961.9022 C 324.02265 910.84868 354.84404 856.44296 403.05019 814.61119 C 402.53521 814.27232 399.42948 812.21587 399.30019 812.13072 L 396.79238 799.94127 L 408.98183 797.4315 C 409.2735 797.62359 415.5116 801.75797 417.67909 803.18541 C 446.44877 781.34595 479.34553 764.4316 515.00917 753.90025 C 545.04661 745.03032 576.65977 740.5241 608.40761 740.78306 C 618.99022 740.86938 629.58806 741.48426 640.14784 742.64439 C 651.52417 743.89423 662.7679 745.98546 673.92128 748.45299 C 674.60921 742.52256 675.71947 732.99979 676.19277 728.89049 C 678.91929 705.21709 682.843 670.55016 685.9955 632.72056 C 689.14967 594.8709 691.65364 552.3988 693.34511 523.04869 C 692.7133 534.19831 693.42786 521.6096 693.90761 513.16978 z M 1353.9213 513.16978 C 1354.401 521.6096 1355.1156 534.19831 1354.4838 523.04869 C 1356.1753 552.3988 1358.6793 594.8709 1361.8334 632.72056 C 1364.9859 670.55016 1368.9095 705.21709 1371.6361 728.89049 C 1372.1094 732.99979 1373.2197 742.52256 1373.9076 748.45299 C 1385.061 745.98546 1396.3052 743.89423 1407.681 742.64439 C 1449.9205 738.00392 1492.7702 742.07365 1532.8197 753.90025 C 1568.4839 764.43168 1601.3799 781.3457 1630.1498 803.18541 C 1632.3173 801.75797 1638.5554 797.62359 1638.8471 797.4315 L 1651.0365 799.94127 L 1648.5268 812.13072 C 1648.3975 812.21583 1645.2934 814.27253 1644.7787 814.61119 C 1692.9852 856.44296 1723.8061 910.84868 1741.5463 961.9022 C 1760.4042 1016.173 1768.1882 1075.5258 1767.3783 1137.7635 C 1765.7982 1259.188 1731.4465 1382.1082 1666.351 1488.9471 A 8.7997985 8.8006473 1.383991 0 1 1663.0463 1492.0956 C 1651.9899 1498.1212 1640.6488 1503.494 1629.3021 1508.8417 C 1629.2942 1508.9143 1629.3256 1508.9797 1629.3158 1509.0526 C 1629.2511 1509.5349 1628.1401 1517.8644 1627.2982 1523.8573 C 1626.1733 1531.8655 1622.576 1558.9993 1614.7963 1587.494 C 1607.3112 1614.9094 1596.2465 1644.3833 1582.5873 1680.3456 C 1581.6937 1682.6982 1579.8347 1684.5563 1577.4818 1685.4491 C 1573.9602 1686.7854 1570.5539 1688.0819 1566.7279 1689.2049 C 1562.8319 1690.3484 1558.6178 1691.2805 1553.2455 1692.0506 C 1547.8526 1692.8237 1541.3356 1693.4258 1532.9779 1693.9139 C 1524.4051 1694.4145 1513.8482 1694.7976 1500.7279 1695.1014 C 1476.6643 1695.6585 1457.9599 1695.2149 1440.8256 1694.0487 C 1437.5629 1698.5205 1434.2008 1702.9543 1430.6576 1707.326 C 1422.665 1717.1875 1414.4322 1726.3087 1409.0951 1732.1444 C 1403.3576 1738.4179 1395.8918 1746.3793 1394.2553 1748.1288 C 1393.5833 1748.8472 1392.7734 1749.3297 1391.9525 1749.7713 C 1392.7532 1765.0213 1392.9314 1779.8066 1392.3041 1793.6932 C 1391.3874 1813.9828 1389.1406 1833.7102 1385.7357 1852.7342 C 1378.4712 1893.3255 1366.3049 1928.5285 1353.056 1958.2401 C 1382.7007 1939.9954 1462.6474 1887.3672 1504.7143 1823.7889 C 1556.4803 1745.5516 1585.892 1675.5487 1585.892 1675.5487 C 1585.892 1675.5487 1715.8961 1638.4893 1763.5443 1607.9003 C 1811.1926 1577.3113 1871.1947 1527.8983 1871.1947 1527.8983 C 1871.1947 1527.8983 1969.4382 1437.3268 1992.474 1080.6112 C 2010.5184 801.18861 1923.8412 709.994 1923.8412 709.994 C 1923.8412 709.994 1846.5137 699.82482 1753.5443 742.58384 C 1682.8425 775.10146 1650.599 798.46666 1650.599 798.46666 C 1650.599 798.46666 1688.2467 704.34634 1488.2416 578.4608 C 1445.3392 551.45751 1399.4987 530.25206 1353.9213 513.16978 z M 608.25722 758.38267 C 578.27189 758.13854 548.39031 762.39428 519.9955 770.77916 C 488.32433 780.13153 459.03646 794.74206 433.19081 813.44713 C 438.31824 816.83992 440.24565 818.0867 445.00527 821.26353 C 456.57275 828.98448 479.13873 844.10931 502.49941 860.87877 C 526.77681 878.30628 557.85219 901.67856 591.12245 930.8397 C 647.89627 980.60145 710.08558 1046.2699 774.43105 1124.9081 C 803.72042 1160.7028 831.92168 1197.321 857.31777 1231.0467 C 883.25494 1265.4917 905.8632 1296.3551 923.40175 1319.8768 C 942.40655 1345.365 955.92238 1362.8991 966.43495 1376.2577 C 976.75137 1389.367 985.00479 1399.5163 994.27089 1410.8651 C 999.7735 1412.2793 1005.1962 1413.6304 1009.9271 1414.5174 C 1012.6682 1415.0314 1015.198 1415.3932 1017.31 1415.6503 C 1019.5779 1415.9263 1021.4658 1416.0937 1022.6752 1416.1952 C 1023.1703 1416.2367 1023.5776 1416.2693 1023.9135 1416.2948 L 1023.9135 1294.7284 A 8.8000002 8.8000002 0 0 1 1023.8685 1294.7342 A 8.8000002 8.8000002 0 0 1 1020.8412 1294.3202 A 8.8000002 8.8000002 0 0 1 1017.7025 1293.8885 L 1006.3432 1285.0682 L 960.90175 1249.785 A 8.8000004 8.8000004 0 0 1 957.59902 1244.1542 C 948.25009 1182.5713 933.50304 1111.3869 909.99941 1033.9706 C 899.41071 999.09327 886.6863 962.33053 869.7123 927.95103 C 853.48001 895.07401 833.15903 863.91816 806.37831 837.69713 C 762.00373 794.24976 701.51892 767.09401 638.22597 760.14049 C 628.25864 759.04544 618.25233 758.46405 608.25722 758.38267 z M 1439.5736 758.38267 C 1429.5782 758.46405 1419.5703 759.04544 1409.6029 760.14049 C 1346.3103 767.09401 1285.8248 794.24976 1241.4506 837.69713 C 1214.6697 863.91816 1194.349 895.07402 1178.1166 927.95103 C 1161.1425 962.33053 1148.4183 999.09324 1137.8295 1033.9706 C 1114.3256 1111.3868 1099.5789 1182.5713 1090.2299 1244.1542 A 8.8000004 8.8000004 0 0 1 1086.9271 1249.7831 C 1065.5505 1266.3809 1049.4622 1278.8748 1041.4857 1285.0682 C 1035.0983 1290.0278 1032.0198 1292.4184 1030.1264 1293.8885 A 8.8000002 8.8000002 0 0 1 1027.0248 1294.3085 A 8.8000002 8.8000002 0 0 1 1023.9154 1294.7284 L 1023.9154 1416.2948 C 1024.2509 1416.2693 1024.6573 1416.2366 1025.1518 1416.1952 C 1026.3605 1416.0937 1028.251 1415.9263 1030.5189 1415.6503 C 1032.6309 1415.3932 1035.1588 1415.0314 1037.8998 1414.5174 C 1042.6308 1413.6304 1048.054 1412.2793 1053.556 1410.8651 C 1062.8222 1399.5163 1071.0755 1389.367 1081.392 1376.2577 C 1091.9046 1362.8991 1105.4203 1345.365 1124.4252 1319.8768 C 1141.9639 1296.3551 1164.5744 1265.4917 1190.5111 1231.0467 C 1215.9073 1197.321 1244.1089 1160.7028 1273.3978 1124.9081 C 1337.7437 1046.2699 1399.9304 980.60145 1456.7045 930.8397 C 1489.975 901.67856 1521.0505 878.30628 1545.3275 860.87877 C 1568.6883 844.10931 1591.256 828.98448 1602.8236 821.26353 C 1607.5838 818.08633 1609.5121 816.84027 1614.64 813.44713 C 1588.7953 794.74195 1559.5069 780.13157 1527.8353 770.77916 C 1499.4408 762.39426 1469.5598 758.13855 1439.5736 758.38267 z M 418.39394 824.76158 C 417.60467 825.42122 416.71788 825.97208 415.93691 826.64049 C 369.79528 866.13146 340.08156 918.25509 322.90761 967.67955 C 304.85926 1019.6201 297.25887 1076.8703 298.04823 1137.535 C 299.57796 1255.0884 332.646 1374.132 395.28261 1477.7674 C 451.00377 1507.8625 510.74804 1529.1788 571.67323 1541.2655 C 626.72328 1552.1866 681.22636 1555.3003 733.15956 1552.0565 A 8.8000002 8.8000002 0 0 1 736.51503 1569.1815 L 719.05409 1575.0545 C 704.79256 1603.5759 694.47745 1632.191 687.20644 1660.0858 C 691.60287 1658.4339 696.09894 1656.6681 700.82558 1654.6444 C 711.31346 1650.154 722.37814 1644.8734 733.8412 1639.0409 C 756.56238 1627.4803 780.07208 1614.1552 802.31972 1601.5702 C 825.37491 1588.5284 847.7822 1575.8873 869.59316 1564.5526 C 893.31284 1552.2261 914.17663 1542.5837 932.39589 1536.1366 C 954.08809 1528.4606 971.54621 1525.544 984.38808 1524.1483 C 995.74843 1522.9137 1005.9873 1522.6729 1011.2768 1522.5799 C 1015.3853 1522.5079 1020.413 1522.4881 1023.9135 1522.4881 L 1023.9135 1433.9354 C 1023.3216 1433.9001 1022.4905 1433.8421 1021.2045 1433.7342 C 1019.8952 1433.6244 1017.762 1433.4348 1015.183 1433.121 C 1012.7866 1432.8293 1009.8756 1432.4145 1006.685 1431.8163 C 1000.4509 1430.6474 993.35237 1428.8053 987.07948 1427.1854 C 985.26598 1426.7171 983.6491 1425.683 982.46425 1424.2323 C 972.43168 1411.9487 963.69851 1401.2394 952.60488 1387.1424 C 941.98903 1373.6533 928.37959 1355.997 909.29238 1330.3983 C 891.68189 1306.7802 869.10879 1275.9634 843.25722 1241.6327 C 817.93605 1208.0058 789.89215 1171.5947 760.80995 1136.0526 C 696.89994 1057.9471 635.3805 993.03477 579.52284 944.07603 C 546.82494 915.41656 516.23974 892.40549 492.23769 875.17564 C 469.13414 858.59083 446.77431 843.60518 435.23378 835.9022 C 428.46003 831.38096 425.15805 829.22811 418.39394 824.76158 z M 1629.435 824.76158 C 1622.6704 829.22833 1619.3669 831.38059 1612.5932 835.9022 C 1601.0526 843.60518 1578.6949 858.59083 1555.5912 875.17564 C 1531.589 892.40549 1501.0042 915.41656 1468.306 944.07603 C 1412.4487 993.03477 1350.9294 1057.9471 1287.0189 1136.0526 C 1257.9372 1171.5947 1229.891 1208.0058 1204.5697 1241.6327 C 1178.718 1275.9634 1156.1445 1306.7802 1138.5346 1330.3983 C 1119.4472 1355.997 1105.838 1373.6533 1095.2221 1387.1424 C 1084.1283 1401.2394 1075.3953 1411.9487 1065.3627 1424.2323 C 1064.1778 1425.683 1062.561 1426.7171 1060.7475 1427.1854 C 1054.4746 1428.8053 1047.378 1430.6474 1041.1439 1431.8163 C 1037.9532 1432.4145 1035.0403 1432.8293 1032.6439 1433.121 C 1030.0649 1433.4348 1027.9317 1433.6244 1026.6225 1433.7342 C 1025.3373 1433.8421 1024.5072 1433.9001 1023.9154 1433.9354 L 1023.9154 1522.4881 C 1027.4157 1522.4901 1032.4418 1522.5079 1036.5502 1522.5799 C 1041.8397 1522.6728 1052.0785 1522.9137 1063.4389 1524.1483 C 1076.2803 1525.544 1093.7392 1528.4606 1115.431 1536.1366 C 1133.6504 1542.5837 1154.5139 1552.2261 1178.2338 1564.5526 C 1200.0448 1575.8873 1222.4519 1588.5284 1245.5072 1601.5702 C 1267.755 1614.1552 1291.2664 1627.4803 1313.9877 1639.0409 C 1325.4508 1644.8734 1336.5134 1650.154 1347.0014 1654.6444 C 1351.7292 1656.6686 1356.2269 1658.4336 1360.6244 1660.0858 C 1353.3533 1632.1909 1343.0365 1603.5761 1328.7748 1575.0545 C 1323.3616 1573.2337 1317.4904 1571.2591 1311.3139 1569.1815 A 8.8000002 8.8000002 0 0 1 1314.6693 1552.0565 C 1366.6029 1555.3003 1421.1053 1552.1867 1476.1557 1541.2655 C 1537.0806 1529.1788 1596.8247 1507.8625 1652.5463 1477.7674 C 1715.1826 1374.132 1748.2509 1255.0884 1749.7807 1137.535 C 1750.5701 1076.8703 1742.9698 1019.62 1724.9213 967.67955 C 1707.7472 918.2551 1678.0332 866.13146 1631.892 826.64049 C 1631.111 825.97204 1630.2243 825.42125 1629.435 824.76158 z M 580.66542 1036.7753 C 582.91065 1036.5993 585.22437 1037.2804 587.07167 1038.8592 C 590.76629 1042.0168 591.19997 1047.5709 588.04238 1051.2655 C 586.59677 1052.957 580.24125 1060.3764 575.35292 1066.2264 C 570.78916 1071.688 563.9045 1080.0405 557.15956 1089.1268 C 547.20838 1102.5324 538.46658 1116.2615 531.22011 1131.3573 C 523.95631 1146.4892 517.89601 1163.6149 512.34902 1182.576 C 508.59726 1195.4006 505.33845 1208.2241 503.23378 1216.6678 C 500.97879 1225.7145 498.16411 1237.4181 497.52675 1240.0585 C 496.38633 1244.7827 491.63202 1247.6891 486.90761 1246.5487 C 482.1832 1245.4083 479.27695 1240.6539 480.41738 1235.9295 C 481.04603 1233.3253 483.88259 1221.5391 486.15761 1212.412 C 488.2751 1203.9169 491.60142 1190.8122 495.45644 1177.6346 C 501.1539 1158.159 507.52811 1140.0447 515.35488 1123.7401 C 523.19896 1107.3994 532.58386 1092.7072 543.0287 1078.6366 C 550.08146 1069.1355 557.22453 1060.4732 561.84706 1054.9413 C 566.81483 1048.9963 573.25353 1041.4816 574.66347 1039.8319 C 576.24227 1037.9845 578.42019 1036.9512 580.66542 1036.7753 z M 1467.1635 1036.7753 C 1469.4087 1036.9512 1471.5866 1037.9845 1473.1654 1039.8319 C 1474.5754 1041.4816 1481.014 1048.9963 1485.9818 1054.9413 C 1490.6044 1060.4732 1497.7493 1069.1355 1504.8021 1078.6366 C 1515.2469 1092.7072 1524.6299 1107.3994 1532.474 1123.7401 C 1540.3008 1140.0447 1546.6751 1158.159 1552.3725 1177.6346 C 1556.2274 1190.8122 1559.5538 1203.9169 1561.6713 1212.412 C 1563.9463 1221.5391 1566.7828 1233.3253 1567.4115 1235.9295 C 1568.5519 1240.6539 1565.6457 1245.4083 1560.9213 1246.5487 C 1556.1969 1247.6891 1551.4425 1244.7827 1550.3021 1240.0585 C 1549.6647 1237.4181 1546.8501 1225.7145 1544.5951 1216.6678 C 1542.4905 1208.2241 1539.2317 1195.4006 1535.4799 1182.576 C 1529.9329 1163.6149 1523.8727 1146.4892 1516.6088 1131.3573 C 1509.3624 1116.2615 1500.6205 1102.5324 1490.6693 1089.1268 C 1483.9244 1080.0405 1477.0398 1071.688 1472.476 1066.2264 C 1467.5876 1060.3764 1461.2321 1052.957 1459.7865 1051.2655 C 1456.6289 1047.5709 1457.0646 1042.0168 1460.7592 1038.8592 C 1462.6065 1037.2804 1464.9182 1036.5993 1467.1635 1036.7753 z M 583.96425 1339.8495 C 586.52083 1339.9319 598.10472 1340.2944 607.14198 1340.662 C 617.13175 1341.0683 633.34559 1341.8117 649.91738 1343.4706 C 667.55503 1345.2363 684.34228 1347.8796 700.70058 1351.9022 C 719.82755 1356.6056 738.91269 1363.33 758.39198 1371.3319 C 771.56476 1376.7431 784.18236 1382.4496 792.32753 1386.1776 C 801.0768 1390.1821 812.27572 1395.4198 814.75331 1396.576 C 819.15746 1398.6313 821.06249 1403.8691 819.00722 1408.2733 C 816.95195 1412.6774 811.7141 1414.5804 807.30995 1412.5253 C 804.79907 1411.3536 793.67756 1406.1517 785.00331 1402.1815 C 776.90894 1398.4768 764.54617 1392.8865 751.70448 1387.6112 C 732.7287 1379.8162 714.50914 1373.4232 696.49745 1368.994 C 681.11636 1365.2117 665.17244 1362.685 648.16347 1360.9823 C 632.1362 1359.3778 616.35357 1358.6517 606.42519 1358.2479 C 597.48163 1357.8841 585.99602 1357.5253 583.39784 1357.4413 C 578.54028 1357.2846 574.72943 1353.2188 574.88613 1348.3612 C 575.04283 1343.5036 579.10668 1339.6928 583.96425 1339.8495 z M 1463.8646 1339.8495 C 1468.7221 1339.6928 1472.7861 1343.5036 1472.9428 1348.3612 C 1473.0995 1353.2188 1469.2886 1357.2846 1464.431 1357.4413 C 1461.8328 1357.5253 1450.3473 1357.8841 1441.4037 1358.2479 C 1431.4753 1358.6517 1415.6927 1359.3778 1399.6654 1360.9823 C 1382.6564 1362.685 1366.7125 1365.2117 1351.3314 1368.994 C 1333.3198 1373.4232 1315.1002 1379.8162 1296.1244 1387.6112 C 1283.2827 1392.8865 1270.92 1398.4768 1262.8256 1402.1815 C 1254.1514 1406.1517 1243.0298 1411.3536 1240.5189 1412.5253 C 1236.1147 1414.5804 1230.8769 1412.6774 1228.8217 1408.2733 C 1226.7664 1403.8691 1228.6714 1398.6313 1233.0756 1396.576 C 1235.5532 1395.4198 1246.7521 1390.1821 1255.5014 1386.1776 C 1263.6466 1382.4496 1276.2641 1376.7431 1289.4369 1371.3319 C 1308.9162 1363.33 1328.0013 1356.6056 1347.1283 1351.9022 C 1363.4867 1347.8796 1380.2758 1345.2363 1397.9135 1343.4706 C 1414.4853 1341.8117 1430.6971 1341.0683 1440.6869 1340.662 C 1449.7242 1340.2944 1461.308 1339.9319 1463.8646 1339.8495 z M 437.41738 1517.4432 C 437.65552 1519.1837 437.7338 1519.8111 437.95839 1521.41 C 439.09889 1529.529 442.56807 1555.5959 450.01113 1582.8573 C 456.98317 1608.3938 467.23944 1636.0022 480.28456 1670.3807 C 482.28312 1671.1154 484.11206 1671.7476 486.05605 1672.3182 C 489.06643 1673.2017 492.45252 1673.9655 497.07948 1674.6288 C 501.80618 1675.3064 507.79096 1675.8735 515.87636 1676.3456 C 524.15758 1676.8292 534.48493 1677.2042 547.50722 1677.5057 C 566.54451 1677.9464 581.66819 1677.6715 595.62245 1677.0526 C 592.49378 1671.9424 589.50151 1666.7633 586.83339 1661.4081 C 578.71786 1645.119 572.82403 1627.4672 568.04433 1608.7499 C 564.81284 1596.0952 562.2791 1583.6176 560.69472 1575.5643 C 559.19542 1567.9435 557.69478 1559.816 556.97988 1555.9647 C 516.25795 1547.0814 476.15839 1534.2028 437.41738 1517.4432 z M 1610.4096 1517.4432 C 1571.6689 1534.2024 1531.5704 1547.0814 1490.849 1555.9647 C 1490.134 1559.816 1488.6335 1567.9435 1487.1342 1575.5643 C 1485.5498 1583.6176 1483.0161 1596.0952 1479.7846 1608.7499 C 1475.0049 1627.4672 1469.1111 1645.119 1460.9955 1661.4081 C 1458.3274 1666.7633 1455.3351 1671.9424 1452.2064 1677.0526 C 1466.1607 1677.6715 1481.2843 1677.9464 1500.3217 1677.5057 C 1513.344 1677.2042 1523.6713 1676.8292 1531.9525 1676.3456 C 1540.038 1675.8735 1546.0208 1675.3064 1550.7475 1674.6288 C 1555.3741 1673.9655 1558.7624 1673.2017 1561.7728 1672.3182 C 1563.7168 1671.7476 1565.5458 1671.1154 1567.5443 1670.3807 C 1580.5895 1636.0022 1590.8457 1608.3938 1597.8178 1582.8573 C 1605.2608 1555.5959 1608.728 1529.529 1609.8685 1521.41 C 1610.0932 1519.8111 1610.1714 1519.1837 1610.4096 1517.4432 z M 1023.9135 1547.6971 L 1023.6205 1547.703 C 1023.3962 1547.7089 1023.1514 1547.7147 1022.9271 1547.7206 C 1022.3337 1547.7361 1019.3335 1547.8358 1016.2201 1547.9764 C 1012.9128 1548.1258 1008.3338 1548.3671 1002.9506 1548.871 C 995.81365 1549.539 987.08839 1550.671 974.5912 1552.9061 C 968.24348 1554.0414 963.16408 1555.0145 958.47011 1556.0604 C 955.1286 1556.805 952.18374 1557.543 949.42128 1558.3124 C 947.92852 1558.7281 946.37261 1559.1842 944.74941 1559.6952 C 940.59481 1561.0031 936.05407 1562.6461 930.69472 1564.951 C 925.76298 1567.0721 920.26217 1569.6981 913.67323 1573.1151 C 900.28332 1580.0571 890.61173 1586.3607 882.57948 1592.3143 C 876.27103 1596.9903 870.78916 1601.6127 866.86659 1604.994 C 863.10623 1608.2355 859.71754 1611.2633 859.05409 1611.871 C 858.63247 1612.2571 858.48043 1612.4103 858.36659 1612.5174 C 856.29633 1614.4656 853.37443 1611.3601 855.44472 1609.412 C 855.55957 1609.3039 855.72017 1609.1638 856.13222 1608.7655 C 857.04077 1607.8873 859.71925 1605.1834 863.56581 1601.4081 C 867.25798 1597.7843 872.58391 1592.6404 878.73769 1587.4569 C 886.62876 1580.8099 896.28938 1573.7024 909.79238 1565.992 C 914.20295 1563.4732 918.05439 1561.404 921.71425 1559.5057 C 908.42452 1565.0743 894.17267 1571.6147 877.71034 1580.1698 C 856.22055 1591.3376 834.07833 1603.8275 810.98573 1616.8905 C 788.81649 1629.4312 764.95418 1642.9564 741.82167 1654.7264 C 730.12328 1660.6786 718.69612 1666.139 707.75331 1670.8241 C 698.94316 1674.5961 690.61863 1677.6556 682.60488 1680.2596 C 674.06137 1720.6935 671.58322 1759.1743 673.10683 1792.8983 C 673.98821 1812.407 676.14766 1831.3629 679.41738 1849.6327 C 687.6615 1895.6969 702.3921 1935.055 717.77675 1966.371 C 720.59877 1972.1151 723.43502 1977.2975 726.26308 1982.494 C 731.73363 1987.1804 735.91771 1991.0123 745.8412 1998.6249 C 776.20597 2021.9183 816.85394 2059.9004 883.96034 2077.6151 C 951.27177 2095.384 1023.9135 2093.6327 1023.9135 2093.6327 L 1023.9135 1898.2381 C 1023.3162 1898.3401 1022.7 1898.3796 1022.0697 1898.3495 C 1021.8282 1898.3379 1018.5362 1898.1845 1014.931 1897.9823 C 1013.2652 1897.8888 1011.1413 1897.764 1008.6615 1897.6034 C 1007.2649 1897.5129 1005.6037 1897.404 1003.7514 1897.2753 C 997.27301 1896.8248 985.86159 1895.9662 972.11464 1894.4217 C 950.50929 1891.9944 920.06244 1887.5799 890.98964 1879.1522 C 877.37181 1875.2047 866.19964 1871.5178 856.6498 1867.8866 C 846.56571 1864.0522 838.51386 1860.3628 831.60097 1856.7069 C 824.78393 1853.1017 818.44117 1849.1864 811.71034 1844.5331 C 805.5849 1840.2983 799.62984 1835.8019 792.75917 1830.619 C 790.68733 1829.0561 789.51062 1826.7619 789.61855 1824.4999 C 790.53905 1805.2067 791.74332 1785.4288 791.89784 1778.6483 C 791.95802 1776.0077 791.89784 1774.4719 791.89784 1773.6366 L 797.14784 1768.3866 L 802.39784 1773.6366 C 802.39784 1774.4719 802.33767 1776.0077 802.39784 1778.6483 C 802.54138 1784.9468 803.58975 1802.4603 804.47597 1820.3827 C 810.36012 1824.3808 815.4496 1827.7935 820.61269 1831.0253 C 827.13146 1835.1054 833.0714 1838.4502 839.3705 1841.5858 C 845.75344 1844.7632 853.23947 1848.079 862.77089 1851.6307 C 871.82617 1855.005 882.55112 1858.5296 895.85292 1862.3905 C 923.53983 1870.4267 953.23416 1874.8854 974.07948 1877.3456 C 987.4939 1878.9287 998.62527 1879.8408 1004.9643 1880.3065 C 1006.7808 1880.44 1008.3897 1880.5497 1009.7611 1880.6385 C 1012.1833 1880.7954 1014.2577 1880.9184 1015.8842 1881.0096 C 1019.4049 1881.2071 1022.6202 1881.3565 1022.8822 1881.369 C 1023.2328 1881.3858 1023.576 1881.4248 1023.9135 1881.4823 L 1023.9135 1547.6971 z M 1023.9154 1547.6971 L 1023.9154 1881.4823 C 1024.2522 1881.425 1024.5967 1881.3858 1024.9467 1881.369 C 1025.2087 1881.3565 1028.424 1881.2071 1031.9447 1881.0096 C 1033.5712 1880.9184 1035.6456 1880.7954 1038.0678 1880.6385 C 1039.4392 1880.5497 1041.046 1880.44 1042.8627 1880.3065 C 1049.2016 1879.8408 1060.333 1878.9287 1073.7475 1877.3456 C 1094.5927 1874.8854 1124.2871 1870.4267 1151.974 1862.3905 C 1165.2758 1858.5296 1176.0027 1855.005 1185.058 1851.6307 C 1194.5894 1848.079 1202.0735 1844.7632 1208.4564 1841.5858 C 1214.7555 1838.4502 1220.6955 1835.1054 1227.2143 1831.0253 C 1232.3772 1827.7935 1237.4668 1824.3808 1243.351 1820.3827 C 1244.2372 1802.4603 1245.2856 1784.9468 1245.4291 1778.6483 C 1245.4893 1776.0077 1245.4291 1774.4719 1245.4291 1773.6366 L 1250.681 1768.3866 L 1255.931 1773.6366 C 1255.931 1774.4719 1255.8709 1776.0077 1255.931 1778.6483 C 1256.0856 1785.4288 1257.2898 1805.2067 1258.2103 1824.4999 C 1258.3183 1826.7619 1257.1396 1829.0561 1255.0678 1830.619 C 1248.1971 1835.8019 1242.244 1840.2983 1236.1185 1844.5331 C 1229.3878 1849.1864 1223.045 1853.1017 1216.2279 1856.7069 C 1209.315 1860.3628 1201.2632 1864.0522 1191.1791 1867.8866 C 1181.6292 1871.5178 1170.4551 1875.2047 1156.8373 1879.1522 C 1127.7645 1887.5799 1097.3195 1891.9944 1075.7143 1894.4217 C 1061.9673 1895.9662 1050.5539 1896.8248 1044.0756 1897.2753 C 1042.2232 1897.404 1040.5621 1897.5129 1039.1654 1897.6034 C 1036.6856 1897.764 1034.5618 1897.8888 1032.8959 1897.9823 C 1029.2908 1898.1845 1026.0007 1898.3379 1025.7592 1898.3495 C 1025.1295 1898.3795 1024.5121 1898.3399 1023.9154 1898.2381 L 1023.9154 2093.6327 C 1023.9154 2093.6327 1096.5571 2095.384 1163.8685 2077.6151 C 1230.975 2059.9004 1271.6229 2021.9183 1301.9877 1998.6249 C 1311.9112 1991.0123 1316.0953 1987.1804 1321.5658 1982.494 C 1324.3938 1977.2975 1327.2302 1972.1151 1330.0521 1966.371 C 1345.4369 1935.055 1360.1673 1895.6969 1368.4115 1849.6327 C 1371.6812 1831.363 1373.8407 1812.4071 1374.7221 1792.8983 C 1376.2457 1759.1743 1373.7675 1720.6935 1365.224 1680.2596 C 1357.2097 1677.6556 1348.8838 1674.5961 1340.0736 1670.8241 C 1329.1308 1666.139 1317.7037 1660.6786 1306.0053 1654.7264 C 1282.8726 1642.9564 1259.0106 1629.4312 1236.8412 1616.8905 C 1213.7485 1603.8275 1191.6085 1591.3376 1170.1185 1580.1698 C 1153.6585 1571.6158 1139.4076 1565.0759 1126.1185 1559.5077 C 1129.7767 1561.4055 1133.6256 1563.4741 1138.0346 1565.992 C 1151.5373 1573.7024 1161.2001 1580.8099 1169.0912 1587.4569 C 1175.245 1592.6404 1180.569 1597.7843 1184.2611 1601.4081 C 1188.1077 1605.1834 1190.7862 1607.8873 1191.6947 1608.7655 C 1192.1068 1609.1638 1192.2674 1609.3039 1192.3822 1609.412 C 1194.4525 1611.3601 1191.5306 1614.4656 1189.4603 1612.5174 C 1189.3465 1612.4103 1189.1945 1612.2571 1188.7728 1611.871 C 1188.1094 1611.2633 1184.7227 1608.2355 1180.9623 1604.994 C 1177.0397 1601.6127 1171.5556 1596.9903 1165.2475 1592.3143 C 1157.2152 1586.3607 1147.5437 1580.0571 1134.1537 1573.1151 C 1127.5648 1569.6981 1122.0659 1567.0721 1117.1342 1564.951 C 1111.7748 1562.6461 1107.2341 1561.0031 1103.0795 1559.6952 C 1101.4563 1559.1842 1099.8984 1558.7281 1098.4057 1558.3124 C 1095.6432 1557.543 1092.7003 1556.805 1089.3588 1556.0604 C 1084.6648 1555.0145 1079.5835 1554.0414 1073.2357 1552.9061 C 1060.7385 1550.671 1052.0152 1549.539 1044.8783 1548.871 C 1039.4951 1548.3671 1034.9161 1548.1258 1031.6088 1547.9764 C 1028.4954 1547.8358 1025.4932 1547.7361 1024.8998 1547.7206 C 1024.6755 1547.7147 1024.4307 1547.7089 1024.2064 1547.703 L 1023.9154 1547.6971 z M 575.61659 1559.7811 C 576.44399 1564.1962 577.02165 1567.3767 577.96425 1572.1678 C 579.53374 1580.1454 581.99095 1592.2307 585.09706 1604.3944 C 589.68573 1622.3639 595.20502 1638.7432 602.5873 1653.5604 C 606.39681 1661.2067 610.81627 1668.6144 615.73378 1675.9159 C 632.85902 1674.3124 649.5993 1671.4312 667.79042 1666.4042 C 675.19027 1635.1223 686.07442 1602.8636 701.85292 1570.6249 C 660.73021 1571.1244 618.38102 1567.728 575.61659 1559.7811 z M 1472.2143 1559.7811 C 1429.4489 1567.7282 1387.099 1571.1244 1345.976 1570.6249 C 1361.7545 1602.8636 1372.6386 1635.1223 1380.0385 1666.4042 C 1398.2292 1671.4309 1414.9701 1674.3124 1432.0951 1675.9159 C 1437.0126 1668.6144 1441.4321 1661.2067 1445.2416 1653.5604 C 1452.6239 1638.7432 1458.1431 1622.3639 1462.7318 1604.3944 C 1465.838 1592.2307 1468.2971 1580.1454 1469.8666 1572.1678 C 1470.8092 1567.3766 1471.3869 1564.1963 1472.2143 1559.7811 z M 942.73183 1640.451 C 943.50276 1640.3791 944.34399 1640.5535 945.20253 1641.0663 C 945.62951 1641.3213 947.51511 1642.4479 948.99159 1643.3221 C 952.90461 1645.6387 958.53294 1648.9306 964.65175 1651.8768 C 970.78593 1654.8303 977.70531 1657.5782 982.56972 1659.4862 C 984.4023 1660.205 986.76411 1661.121 987.29628 1661.328 C 992.26697 1663.261 989.36657 1670.7181 984.39589 1668.785 C 983.86983 1668.5804 981.49412 1667.6576 979.64784 1666.9335 C 974.79856 1665.0314 967.62142 1662.1858 961.183 1659.0858 C 954.72921 1655.9784 948.84363 1652.5325 944.91542 1650.2069 C 943.42221 1649.3228 941.52057 1648.186 941.10097 1647.9354 C 937.38062 1645.7135 939.39114 1640.7627 942.73183 1640.451 z M 1105.0971 1640.451 C 1108.4377 1640.7627 1110.4483 1645.7135 1106.7279 1647.9354 C 1106.3083 1648.186 1104.4067 1649.3228 1102.9135 1650.2069 C 1098.9853 1652.5325 1093.0997 1655.9784 1086.6459 1659.0858 C 1080.2075 1662.1858 1073.0303 1665.0314 1068.181 1666.9335 C 1066.3347 1667.6576 1063.9591 1668.5804 1063.433 1668.785 C 1058.4623 1670.7181 1055.562 1663.261 1060.5326 1661.328 C 1061.0648 1661.121 1063.4285 1660.205 1065.2611 1659.4862 C 1070.1255 1657.5782 1077.0429 1654.8303 1083.1771 1651.8768 C 1089.2959 1648.9306 1094.9263 1645.6387 1098.8393 1643.3221 C 1100.3156 1642.4479 1102.1994 1641.3213 1102.6264 1641.0663 C 1103.4849 1640.5535 1104.3261 1640.3791 1105.0971 1640.451 z M 663.54433 1685.7069 C 651.22169 1688.7318 639.42535 1690.6558 627.64394 1692.1288 C 628.72059 1693.4994 629.73484 1694.8741 630.84511 1696.244 C 638.49702 1705.6853 646.44278 1714.4949 651.72206 1720.2674 C 654.02547 1722.786 655.34076 1724.1673 657.71425 1726.7206 C 659.08332 1713.3351 660.85142 1699.7147 663.54433 1685.7069 z M 1384.2846 1685.7069 C 1386.9775 1699.7147 1388.7456 1713.3351 1390.1146 1726.7206 C 1392.4881 1724.1673 1393.8034 1722.786 1396.1068 1720.2674 C 1401.3861 1714.4949 1409.3337 1705.6853 1416.9857 1696.244 C 1418.0955 1694.8747 1419.1088 1693.5007 1420.185 1692.1307 C 1408.4032 1690.6578 1396.6075 1688.732 1384.2846 1685.7069 z " />
  </g>
</svg>
