<?xml version="1.0" encoding="UTF-8" standalone="no"?>
<!-- Created with Inkscape (http://www.inkscape.org/) -->

<svg
   version="1.1"
   id="svg1"
   width="1940.4474"
   height="1646.9341"
   viewBox="0 0 1940.4474 1646.9341"
   sodipodi:docname="Logo_unset.svg"
   inkscape:version="1.3 (0e150ed6c4, 2023-07-21)"
   xmlns:inkscape="http://www.inkscape.org/namespaces/inkscape"
   xmlns:sodipodi="http://sodipodi.sourceforge.net/DTD/sodipodi-0.dtd"
   xmlns="http://www.w3.org/2000/svg"
   xmlns:svg="http://www.w3.org/2000/svg">
  <defs
     id="defs1">
    <inkscape:path-effect
       effect="powerstroke"
       id="path-effect104"
       is_visible="true"
       lpeversion="1.3"
       scale_width="1"
       interpolator_type="CentripetalCatmullRom"
       interpolator_beta="0.2"
       start_linecap_type="round"
       end_linecap_type="round"
       offset_points="0.2,4 | 1,4 | 1.8,4 | 2.2,4 | 3,4 | 3.8,4"
       linejoin_type="round"
       miter_limit="4"
       not_jump="false"
       sort_points="true"
       message="&lt;b&gt;Ctrl + click&lt;/b&gt; on existing node and move it" />
    <inkscape:path-effect
       effect="powerstroke"
       id="path-effect103"
       is_visible="true"
       lpeversion="1.3"
       scale_width="1"
       interpolator_type="CentripetalCatmullRom"
       interpolator_beta="0.2"
       start_linecap_type="peak"
       end_linecap_type="round"
       offset_points="0.098533817,5.250503 | 1.5,8.5 | 2.8,8.5 | 3.2,8.5 | 4.5,8.5 | 5.8,8.5"
       linejoin_type="round"
       miter_limit="4"
       not_jump="false"
       sort_points="true"
       message="&lt;b&gt;Ctrl + click&lt;/b&gt; on existing node and move it" />
    <inkscape:path-effect
       effect="powerstroke"
       id="path-effect102"
       is_visible="true"
       lpeversion="1.3"
       scale_width="1"
       interpolator_type="CentripetalCatmullRom"
       interpolator_beta="0.2"
       start_linecap_type="round"
       end_linecap_type="round"
       offset_points="0.2,8.8000002 | 1,8.8000002 | 1.8,8.8000002 | 2.2,8.8000002 | 3,8.8000002 | 3.8,8.8000002"
       linejoin_type="round"
       miter_limit="4"
       not_jump="false"
       sort_points="true"
       message="&lt;b&gt;Ctrl + click&lt;/b&gt; on existing node and move it" />
    <inkscape:path-effect
       effect="powerstroke"
       id="path-effect101"
       is_visible="true"
       lpeversion="1.3"
       scale_width="1"
       interpolator_type="CentripetalCatmullRom"
       interpolator_beta="0.2"
       start_linecap_type="round"
       end_linecap_type="round"
       offset_points="0.2,8.8000002 | 1,8.8000002 | 1.8,8.8000002 | 2.2,8.8000002 | 3,8.8000002 | 3.8,8.8000002"
       linejoin_type="round"
       miter_limit="4"
       not_jump="false"
       sort_points="true"
       message="&lt;b&gt;Ctrl + click&lt;/b&gt; on existing node and move it" />
    <inkscape:path-effect
       effect="powerstroke"
       id="path-effect100"
       is_visible="true"
       lpeversion="1.3"
       scale_width="1"
       interpolator_type="CentripetalCatmullRom"
       interpolator_beta="0.2"
       start_linecap_type="round"
       end_linecap_type="round"
       offset_points="0.2,8.8000002 | 1,8.8000002 | 1.8,8.8000002 | 2.2,8.8000002 | 3,8.8000002 | 3.8,8.8000002"
       linejoin_type="round"
       miter_limit="4"
       not_jump="false"
       sort_points="true"
       message="&lt;b&gt;Ctrl + click&lt;/b&gt; on existing node and move it" />
    <inkscape:path-effect
       effect="powerstroke"
       id="path-effect99"
       is_visible="true"
       lpeversion="1.3"
       scale_width="1"
       interpolator_type="CentripetalCatmullRom"
       interpolator_beta="0.2"
       start_linecap_type="square"
       end_linecap_type="round"
       offset_points="0.2,8.8000002 | 3.5,8.8000002 | 6.8,8.8000002 | 7.2,8.8000002 | 10.5,8.8000002 | 13.8,8.8000002"
       linejoin_type="round"
       miter_limit="4"
       not_jump="false"
       sort_points="true"
       message="&lt;b&gt;Ctrl + click&lt;/b&gt; on existing node and move it" />
    <inkscape:path-effect
       effect="powerstroke"
       id="path-effect98"
       is_visible="true"
       lpeversion="1.3"
       scale_width="1"
       interpolator_type="CentripetalCatmullRom"
       interpolator_beta="0.2"
       start_linecap_type="square"
       end_linecap_type="square"
       offset_points="0.2,8.8000002 | 1,8.8000002 | 1.8,8.8000002 | 2.2,8.8000002 | 3,8.8000002 | 3.8,8.8000002"
       linejoin_type="round"
       miter_limit="4"
       not_jump="false"
       sort_points="true"
       message="&lt;b&gt;Ctrl + click&lt;/b&gt; on existing node and move it" />
    <inkscape:path-effect
       effect="mirror_symmetry"
       start_point="1023.9145,446.69322"
       end_point="1023.9145,2093.6273"
       center_point="1023.9145,1270.1603"
       id="path-effect97"
       is_visible="true"
       lpeversion="1.2"
       lpesatellites=""
       mode="vertical"
       discard_orig_path="false"
       fuse_paths="true"
       oposite_fuse="false"
       split_items="false"
       split_open="false"
       link_styles="false" />
    <inkscape:path-effect
       effect="bspline"
       id="path-effect95"
       is_visible="true"
       lpeversion="1.3"
       weight="33.333333"
       steps="2"
       helper_size="0"
       apply_no_weight="true"
       apply_with_weight="true"
       only_selected="false"
       uniform="false" />
    <inkscape:path-effect
       effect="mirror_symmetry"
       start_point="1023.9145,446.69322"
       end_point="1023.9145,2093.6273"
       center_point="1023.9145,1270.1603"
       id="path-effect93"
       is_visible="true"
       lpeversion="1.2"
       lpesatellites=""
       mode="vertical"
       discard_orig_path="false"
       fuse_paths="false"
       oposite_fuse="false"
       split_items="false"
       split_open="false"
       link_styles="false" />
    <inkscape:path-effect
       effect="bspline"
       id="path-effect91"
       is_visible="true"
       lpeversion="1.3"
       weight="33.333333"
       steps="2"
       helper_size="0"
       apply_no_weight="true"
       apply_with_weight="true"
       only_selected="false"
       uniform="false" />
    <inkscape:path-effect
       effect="mirror_symmetry"
       start_point="1023.9145,446.69322"
       end_point="1023.9145,2093.6273"
       center_point="1023.9145,1270.1603"
       id="path-effect89"
       is_visible="true"
       lpeversion="1.2"
       lpesatellites=""
       mode="vertical"
       discard_orig_path="false"
       fuse_paths="true"
       oposite_fuse="false"
       split_items="false"
       split_open="false"
       link_styles="false" />
    <inkscape:path-effect
       effect="powerstroke"
       id="path-effect87"
       is_visible="true"
       lpeversion="1.3"
       scale_width="1"
       interpolator_type="CentripetalCatmullRom"
       interpolator_beta="0.2826087"
       start_linecap_type="square"
       end_linecap_type="round"
       offset_points="0.016670781,4.7858618 | 1.4129789,4.8971659 | 2.9855886,2.1321021"
       linejoin_type="round"
       miter_limit="4"
       not_jump="false"
       sort_points="true"
       message="&lt;b&gt;Ctrl + click&lt;/b&gt; on existing node and move it" />
    <inkscape:path-effect
       effect="bspline"
       id="path-effect85"
       is_visible="true"
       lpeversion="1.3"
       weight="11.8333"
       steps="2"
       helper_size="0"
       apply_no_weight="true"
       apply_with_weight="true"
       only_selected="true"
       uniform="false" />
    <inkscape:path-effect
       effect="mirror_symmetry"
       start_point="1023.9145,446.69322"
       end_point="1023.9145,2093.6273"
       center_point="1023.9145,1270.1603"
       id="path-effect83"
       is_visible="true"
       lpeversion="1.2"
       lpesatellites=""
       mode="vertical"
       discard_orig_path="false"
       fuse_paths="true"
       oposite_fuse="false"
       split_items="false"
       split_open="false"
       link_styles="false" />
    <inkscape:path-effect
       effect="bspline"
       id="path-effect81"
       is_visible="true"
       lpeversion="1.3"
       weight="33.333333"
       steps="2"
       helper_size="0"
       apply_no_weight="true"
       apply_with_weight="true"
       only_selected="false"
       uniform="false" />
    <inkscape:path-effect
       effect="mirror_symmetry"
       start_point="1023.9145,446.69322"
       end_point="1023.9145,2093.6273"
       center_point="1023.9145,1270.1603"
       id="path-effect79"
       is_visible="true"
       lpeversion="1.2"
       lpesatellites=""
       mode="vertical"
       discard_orig_path="false"
       fuse_paths="true"
       oposite_fuse="false"
       split_items="false"
       split_open="false"
       link_styles="false" />
    <inkscape:path-effect
       effect="bspline"
       id="path-effect77"
       is_visible="true"
       lpeversion="1.3"
       weight="33.333333"
       steps="2"
       helper_size="0"
       apply_no_weight="true"
       apply_with_weight="true"
       only_selected="false"
       uniform="false" />
    <inkscape:path-effect
       effect="mirror_symmetry"
       start_point="1023.9145,446.69322"
       end_point="1023.9145,2093.6273"
       center_point="1023.9145,1270.1603"
       id="path-effect75"
       is_visible="true"
       lpeversion="1.2"
       lpesatellites=""
       mode="vertical"
       discard_orig_path="false"
       fuse_paths="true"
       oposite_fuse="false"
       split_items="false"
       split_open="false"
       link_styles="false" />
    <inkscape:path-effect
       effect="bspline"
       id="path-effect73"
       is_visible="true"
       lpeversion="1.3"
       weight="33.333333"
       steps="2"
       helper_size="0"
       apply_no_weight="true"
       apply_with_weight="true"
       only_selected="false"
       uniform="false" />
    <inkscape:path-effect
       effect="mirror_symmetry"
       start_point="1023.9145,446.69322"
       end_point="1023.9145,2093.6273"
       center_point="1023.9145,1270.1603"
       id="path-effect71"
       is_visible="true"
       lpeversion="1.2"
       lpesatellites=""
       mode="vertical"
       discard_orig_path="false"
       fuse_paths="true"
       oposite_fuse="false"
       split_items="false"
       split_open="false"
       link_styles="false" />
    <inkscape:path-effect
       effect="bspline"
       id="path-effect69"
       is_visible="true"
       lpeversion="1.3"
       weight="33.333333"
       steps="2"
       helper_size="0"
       apply_no_weight="true"
       apply_with_weight="true"
       only_selected="false"
       uniform="false" />
    <inkscape:path-effect
       effect="mirror_symmetry"
       start_point="1023.9145,446.69322"
       end_point="1023.9145,2093.6273"
       center_point="1023.9145,1270.1603"
       id="path-effect67"
       is_visible="true"
       lpeversion="1.2"
       lpesatellites=""
       mode="vertical"
       discard_orig_path="false"
       fuse_paths="false"
       oposite_fuse="false"
       split_items="false"
       split_open="false"
       link_styles="false" />
    <inkscape:path-effect
       effect="bspline"
       id="path-effect65"
       is_visible="true"
       lpeversion="1.3"
       weight="33.333333"
       steps="2"
       helper_size="0"
       apply_no_weight="true"
       apply_with_weight="true"
       only_selected="false"
       uniform="false" />
    <inkscape:path-effect
       effect="mirror_symmetry"
       start_point="1023.9145,446.69322"
       end_point="1023.9145,2093.6273"
       center_point="1023.9145,1270.1603"
       id="path-effect63"
       is_visible="true"
       lpeversion="1.2"
       lpesatellites=""
       mode="vertical"
       discard_orig_path="false"
       fuse_paths="true"
       oposite_fuse="false"
       split_items="false"
       split_open="false"
       link_styles="false" />
    <inkscape:path-effect
       effect="powerstroke"
       id="path-effect61"
       is_visible="true"
       lpeversion="1.3"
       scale_width="1"
       interpolator_type="CentripetalCatmullRom"
       interpolator_beta="0.2"
       start_linecap_type="square"
       end_linecap_type="peak"
       offset_points="0.2,8.8000002 | 3.5,8.8000002 | 6.8,8.8000002"
       linejoin_type="round"
       miter_limit="4"
       not_jump="false"
       sort_points="true"
       message="&lt;b&gt;Ctrl + click&lt;/b&gt; on existing node and move it" />
    <inkscape:path-effect
       effect="bspline"
       id="path-effect59"
       is_visible="true"
       lpeversion="1.3"
       weight="33.333333"
       steps="2"
       helper_size="0"
       apply_no_weight="true"
       apply_with_weight="true"
       only_selected="false"
       uniform="false" />
    <inkscape:path-effect
       effect="mirror_symmetry"
       start_point="1023.9145,446.69322"
       end_point="1023.9145,2093.6273"
       center_point="1023.9145,1270.1603"
       id="path-effect57"
       is_visible="true"
       lpeversion="1.2"
       lpesatellites=""
       mode="vertical"
       discard_orig_path="false"
       fuse_paths="false"
       oposite_fuse="false"
       split_items="true"
       split_open="false"
       link_styles="false" />
    <inkscape:path-effect
       effect="powerstroke"
       id="path-effect55"
       is_visible="true"
       lpeversion="1.3"
       scale_width="1"
       interpolator_type="CentripetalCatmullRom"
       interpolator_beta="0.2"
       start_linecap_type="round"
       end_linecap_type="round"
       offset_points="0.2,8.8000002 | 6,8.8000002 | 11.8,8.8000002"
       linejoin_type="round"
       miter_limit="4"
       not_jump="false"
       sort_points="true"
       message="&lt;b&gt;Ctrl + click&lt;/b&gt; on existing node and move it" />
    <inkscape:path-effect
       effect="spiro"
       id="path-effect53"
       is_visible="true"
       lpeversion="1" />
    <inkscape:path-effect
       effect="spiro"
       id="path-effect33"
       is_visible="true"
       lpeversion="1" />
    <inkscape:path-effect
       effect="knot"
       id="path-effect32"
       is_visible="true"
       lpeversion="1"
       switcher_size="15"
       interruption_width="3"
       prop_to_stroke_width="true"
       add_stroke_width="inkscape_1.0_and_up"
       both="false"
       inverse_width="false"
       add_other_stroke_width="inkscape_1.0_and_up"
       crossing_points_vector="" />
    <inkscape:path-effect
       effect="mirror_symmetry"
       start_point="1023.9145,446.69322"
       end_point="1023.9145,2093.6273"
       center_point="1023.9145,1270.1603"
       id="path-effect31"
       is_visible="true"
       lpeversion="1.2"
       lpesatellites=""
       mode="vertical"
       discard_orig_path="false"
       fuse_paths="true"
       oposite_fuse="false"
       split_items="false"
       split_open="false"
       link_styles="false" />
    <inkscape:path-effect
       effect="mirror_symmetry"
       start_point="1023.9145,446.69322"
       end_point="1023.9145,2093.6273"
       center_point="1023.9145,1270.1603"
       id="path-effect30"
       is_visible="true"
       lpeversion="1.2"
       lpesatellites=""
       mode="vertical"
       discard_orig_path="false"
       fuse_paths="true"
       oposite_fuse="false"
       split_items="false"
       split_open="false"
       link_styles="false" />
    <inkscape:path-effect
       effect="mirror_symmetry"
       start_point="1023.9145,446.69322"
       end_point="1023.9145,2093.6273"
       center_point="1023.9145,1270.1603"
       id="path-effect29"
       is_visible="true"
       lpeversion="1.2"
       lpesatellites=""
       mode="vertical"
       discard_orig_path="false"
       fuse_paths="true"
       oposite_fuse="false"
       split_items="false"
       split_open="false"
       link_styles="false" />
    <filter
       id="selectable_hidder_filter"
       width="1"
       height="1"
       x="0"
       y="0"
       style="color-interpolation-filters:sRGB;"
       inkscape:label="LPE boolean visibility">
      <feComposite
         id="boolops_hidder_primitive"
         result="composite1"
         operator="arithmetic"
         in2="SourceGraphic"
         in="BackgroundImage" />
    </filter>
    <inkscape:path-effect
       effect="bool_op"
       operand-path=""
       id="path-effect28"
       is_visible="true"
       lpeversion="1"
       operation="diff"
       swap-operands="false"
       filltype-this="from-curve"
       filter=""
       filltype-operand="from-curve" />
    <inkscape:path-effect
       effect="mirror_symmetry"
       start_point="1023.9145,446.69322"
       end_point="1023.9145,2093.6273"
       center_point="1023.9145,1270.1603"
       id="path-effect27"
       is_visible="true"
       lpeversion="1.2"
       lpesatellites=""
       mode="vertical"
       discard_orig_path="false"
       fuse_paths="true"
       oposite_fuse="false"
       split_items="false"
       split_open="false"
       link_styles="false" />
    <inkscape:path-effect
       effect="mirror_symmetry"
       start_point="1023.9145,446.69322"
       end_point="1023.9145,2093.6273"
       center_point="1023.9145,1270.1603"
       id="path-effect26"
       is_visible="true"
       lpeversion="1.2"
       lpesatellites="#path39"
       mode="vertical"
       discard_orig_path="false"
       fuse_paths="false"
       oposite_fuse="false"
       split_items="true"
       split_open="false"
       link_styles="false" />
    <inkscape:path-effect
       effect="powerstroke"
       id="path-effect25"
       is_visible="true"
       lpeversion="1.3"
       scale_width="1"
       interpolator_type="CentripetalCatmullRom"
       interpolator_beta="0.2"
       start_linecap_type="round"
       end_linecap_type="round"
       offset_points="0.2,8.8000002 | 6,8.8000002 | 11.8,8.8000002"
       linejoin_type="round"
       miter_limit="4"
       not_jump="false"
       sort_points="true"
       message="&lt;b&gt;Ctrl + click&lt;/b&gt; on existing node and move it" />
    <inkscape:path-effect
       effect="mirror_symmetry"
       start_point="1023.9145,446.69322"
       end_point="1023.9145,2093.6273"
       center_point="1023.9145,1270.1603"
       id="path-effect17"
       is_visible="true"
       lpeversion="1.2"
       lpesatellites=""
       mode="vertical"
       discard_orig_path="false"
       fuse_paths="true"
       oposite_fuse="false"
       split_items="false"
       split_open="false"
       link_styles="false" />
    <inkscape:path-effect
       effect="mirror_symmetry"
       start_point="1023.9145,446.69322"
       end_point="1023.9145,2093.6273"
       center_point="1023.9145,1270.1603"
       id="path-effect3"
       is_visible="true"
       lpeversion="1.2"
       lpesatellites=""
       mode="vertical"
       discard_orig_path="false"
       fuse_paths="true"
       oposite_fuse="false"
       split_items="false"
       split_open="false"
       link_styles="false" />
    <inkscape:path-effect
       effect="mirror_symmetry"
       start_point="1023.9145,446.69322"
       end_point="1023.9145,2093.6273"
       center_point="1023.9145,1270.1603"
       id="path-effect2"
       is_visible="true"
       lpeversion="1.2"
       lpesatellites=""
       mode="vertical"
       discard_orig_path="false"
       fuse_paths="true"
       oposite_fuse="false"
       split_items="false"
       split_open="false"
       link_styles="false" />
    <inkscape:path-effect
       effect="mirror_symmetry"
       start_point="1023.9145,446.69322"
       end_point="1023.9145,2093.6273"
       center_point="1023.9145,1270.1603"
       id="path-effect1"
       is_visible="true"
       lpeversion="1.2"
       lpesatellites=""
       mode="vertical"
       discard_orig_path="false"
       fuse_paths="true"
       oposite_fuse="false"
       split_items="false"
       split_open="false"
       link_styles="false" />
    <inkscape:path-effect
       effect="powerstroke"
       id="path-effect24"
       is_visible="true"
       lpeversion="1.3"
       scale_width="1"
       interpolator_type="CentripetalCatmullRom"
       interpolator_beta="0.2"
       start_linecap_type="square"
       end_linecap_type="peak"
       offset_points="0.2,8.8000002 | 3.5,8.8000002 | 6.8,8.8000002"
       linejoin_type="round"
       miter_limit="4"
       not_jump="false"
       sort_points="true"
       message="&lt;b&gt;Ctrl + click&lt;/b&gt; on existing node and move it" />
    <inkscape:path-effect
       effect="bspline"
       id="path-effect23"
       is_visible="true"
       lpeversion="1.3"
       weight="33.333333"
       steps="2"
       helper_size="0"
       apply_no_weight="true"
       apply_with_weight="true"
       only_selected="false"
       uniform="false" />
    <inkscape:path-effect
       effect="mirror_symmetry"
       start_point="1023.9145,446.69322"
       end_point="1023.9145,2093.6273"
       center_point="1023.9145,1270.1603"
       id="path-effect22"
       is_visible="true"
       lpeversion="1.2"
       lpesatellites=""
       mode="vertical"
       discard_orig_path="false"
       fuse_paths="false"
       oposite_fuse="false"
       split_items="false"
       split_open="false"
       link_styles="false" />
    <inkscape:path-effect
       effect="mirror_symmetry"
       start_point="989.65,1644.5"
       end_point="985.84568,1665.0567"
       center_point="987.74784,1654.7785"
       id="path-effect21"
       is_visible="true"
       lpeversion="1.2"
       lpesatellites=""
       mode="free"
       discard_orig_path="false"
       fuse_paths="false"
       oposite_fuse="false"
       split_items="false"
       split_open="false"
       link_styles="false" />
    <inkscape:path-effect
       effect="mirror_symmetry"
       start_point="1023.9145,446.69322"
       end_point="1023.9145,2093.6273"
       center_point="1023.9145,1270.1603"
       id="path-effect20"
       is_visible="true"
       lpeversion="1.2"
       lpesatellites=""
       mode="vertical"
       discard_orig_path="false"
       fuse_paths="true"
       oposite_fuse="false"
       split_items="false"
       split_open="false"
       link_styles="false" />
    <inkscape:path-effect
       effect="bspline"
       id="path-effect19"
       is_visible="true"
       lpeversion="1.3"
       weight="33.333333"
       steps="2"
       helper_size="0"
       apply_no_weight="true"
       apply_with_weight="true"
       only_selected="false"
       uniform="false" />
    <inkscape:path-effect
       effect="bspline"
       id="path-effect18"
       is_visible="true"
       lpeversion="1.3"
       weight="33.333333"
       steps="2"
       helper_size="0"
       apply_no_weight="true"
       apply_with_weight="true"
       only_selected="false"
       uniform="false" />
    <inkscape:path-effect
       effect="bend_path"
       id="path-effect16"
       is_visible="true"
       lpeversion="1"
       bendpath="M 856.14512,1574.2989 H 1023.154"
       prop_scale="1"
       scale_y_rel="false"
       vertical="false"
       hide_knot="false" />
    <inkscape:path-effect
       effect="mirror_symmetry"
       start_point="1023.154,1536.5869"
       end_point="1023.154,1612.011"
       center_point="1023.154,1574.2989"
       id="path-effect15"
       is_visible="true"
       lpeversion="1.2"
       lpesatellites=""
       mode="free"
       discard_orig_path="false"
       fuse_paths="false"
       oposite_fuse="false"
       split_items="false"
       split_open="false"
       link_styles="false" />
    <inkscape:path-effect
       effect="powerstroke"
       id="path-effect14"
       is_visible="true"
       lpeversion="1.3"
       scale_width="1"
       interpolator_type="CentripetalCatmullRom"
       interpolator_beta="0.2826087"
       start_linecap_type="square"
       end_linecap_type="round"
       offset_points="0.016670781,4.7858618 | 1.4129789,4.8971659 | 2.9855886,2.1321021"
       linejoin_type="round"
       miter_limit="4"
       not_jump="false"
       sort_points="true"
       message="&lt;b&gt;Ctrl + click&lt;/b&gt; on existing node and move it" />
    <inkscape:path-effect
       effect="bspline"
       id="path-effect13"
       is_visible="true"
       lpeversion="1.3"
       weight="11.8333"
       steps="2"
       helper_size="0"
       apply_no_weight="true"
       apply_with_weight="true"
       only_selected="true"
       uniform="false" />
    <inkscape:path-effect
       effect="bspline"
       id="path-effect12"
       is_visible="true"
       lpeversion="1.3"
       weight="33.333333"
       steps="2"
       helper_size="0"
       apply_no_weight="true"
       apply_with_weight="true"
       only_selected="false"
       uniform="false" />
    <inkscape:path-effect
       effect="bspline"
       id="path-effect11"
       is_visible="true"
       lpeversion="1.3"
       weight="33.333333"
       steps="2"
       helper_size="0"
       apply_no_weight="true"
       apply_with_weight="true"
       only_selected="false"
       uniform="false" />
    <inkscape:path-effect
       effect="bspline"
       id="path-effect10"
       is_visible="true"
       lpeversion="1.3"
       weight="33.333333"
       steps="2"
       helper_size="0"
       apply_no_weight="true"
       apply_with_weight="true"
       only_selected="false"
       uniform="false" />
    <inkscape:path-effect
       effect="bspline"
       id="path-effect9"
       is_visible="true"
       lpeversion="1.3"
       weight="33.333333"
       steps="2"
       helper_size="0"
       apply_no_weight="true"
       apply_with_weight="true"
       only_selected="false"
       uniform="false" />
    <inkscape:path-effect
       effect="bspline"
       id="path-effect8"
       is_visible="true"
       lpeversion="1.3"
       weight="33.333333"
       steps="2"
       helper_size="0"
       apply_no_weight="true"
       apply_with_weight="true"
       only_selected="false"
       uniform="false" />
    <inkscape:path-effect
       effect="bspline"
       id="path-effect7"
       is_visible="true"
       lpeversion="1.3"
       weight="33.333333"
       steps="2"
       helper_size="0"
       apply_no_weight="true"
       apply_with_weight="true"
       only_selected="false"
       uniform="false" />
    <inkscape:path-effect
       effect="powerstroke"
       id="path-effect6"
       is_visible="true"
       lpeversion="1.3"
       scale_width="1"
       interpolator_type="CentripetalCatmullRom"
       interpolator_beta="0.75"
       start_linecap_type="round"
       end_linecap_type="round"
       offset_points="13.927808,12.478685"
       linejoin_type="spiro"
       miter_limit="4"
       not_jump="true"
       sort_points="true"
       message="&lt;b&gt;Ctrl + click&lt;/b&gt; on existing node and move it" />
    <inkscape:path-effect
       effect="simplify"
       id="path-effect5"
       is_visible="true"
       lpeversion="1.3"
       threshold="0.012"
       steps="1"
       smooth_angles="0"
       helper_size="0"
       simplify_individual_paths="false"
       simplify_just_coalesce="false"
       step="1" />
    <inkscape:path-effect
       effect="spiro"
       id="path-effect4"
       is_visible="true"
       lpeversion="1" />
  </defs>
  <sodipodi:namedview
     id="namedview1"
     pagecolor="#ffffff"
     bordercolor="#000000"
     borderopacity="0.25"
     inkscape:showpageshadow="2"
     inkscape:pageopacity="0.0"
     inkscape:pagecheckerboard="0"
     inkscape:deskcolor="#d1d1d1"
     inkscape:zoom="0.46241062"
     inkscape:cx="878.00752"
     inkscape:cy="777.44754"
     inkscape:window-width="1920"
     inkscape:window-height="1017"
     inkscape:window-x="-8"
     inkscape:window-y="-8"
     inkscape:window-maximized="1"
     inkscape:current-layer="g1" />
  <g
     inkscape:groupmode="layer"
     inkscape:label="Image"
     id="g1"
     transform="translate(-53.690813,-446.69322)"
     style="display:inline">
    <path
       id="path3"
       style="display:inline;fill-opacity:1"
       inkscape:label="solid"
       d="m 1023.9135,446.74791 c 0,0 -151.56925,3.45385 -311.99612,59.73242 -0.38538,6.78308 -0.79022,13.90799 -1.00196,17.58203 -1.69048,29.33282 -4.20546,72.01472 -7.38086,110.11914 -3.17702,38.12454 -7.12812,73.02564 -9.85742,96.72266 2.85055,-24.43321 -4.20611,36.1251 -2.52148,21.69531 47.90698,13.45163 92.36186,38.0832 127.53515,72.52148 28.5773,27.98022 49.96264,60.93092 66.80274,95.03907 17.59256,35.63228 30.64166,73.4402 41.3457,108.69728 23.33889,76.8734 38.14352,147.6746 47.62695,209.1777 l 42.6699,33.1309 6.7774,5.2617 z m 0,0 v 829.67769 c 1.9054,-1.4795 2.9676,-2.3016 6.7774,-5.2597 7.628,-5.9228 22.6736,-17.6047 42.6699,-33.1309 9.4835,-61.5032 24.2886,-132.3043 47.6269,-209.1777 10.7042,-35.25708 23.7537,-73.065 41.3457,-108.69728 16.8402,-34.10815 38.2253,-67.05885 66.8028,-95.03907 35.1729,-34.43828 79.6284,-59.06985 127.5351,-72.52148 1.6847,14.42979 -5.372,-46.12852 -2.5214,-21.69531 -2.7293,-23.69702 -6.6804,-58.59812 -9.8575,-96.72266 -3.1754,-38.10442 -5.6904,-80.78632 -7.3808,-110.11914 -0.2118,-3.67404 -0.6166,-10.79895 -1.002,-17.58203 -160.4269,-56.27857 -311.9941,-59.73242 -311.9941,-59.73242 z M 693.90761,513.16978 C 648.33016,530.25206 602.48972,551.45751 559.5873,578.4608 359.58222,704.34634 397.22988,798.46666 397.22988,798.46666 c 0,0 -32.24347,-23.3652 -102.94532,-55.88282 C 201.31518,699.82482 123.98769,709.994 123.98769,709.994 c 0,0 -86.677222,91.19461 -68.632815,370.6172 23.035802,356.7156 121.281255,447.2871 121.281255,447.2871 0,0 60.00016,49.413 107.64843,80.002 47.64827,30.589 177.65235,67.6484 177.65235,67.6484 0,0 29.41171,70.0029 81.17773,148.2402 42.06681,63.5783 122.01351,116.2065 151.6582,134.4512 -13.24883,-29.7116 -25.41517,-64.9146 -32.67968,-105.5059 -3.40484,-19.024 -5.65171,-38.7514 -6.56836,-59.041 -0.62738,-13.8866 -0.44913,-28.6719 0.35156,-43.9219 -0.82088,-0.4416 -1.63075,-0.9241 -2.30273,-1.6425 -1.63654,-1.7495 -9.10235,-9.7109 -14.83985,-15.9844 -5.33712,-5.8357 -13.56996,-14.9569 -21.5625,-24.8184 -3.54316,-4.3717 -6.90527,-8.8055 -10.16797,-13.2773 -17.13452,1.1663 -35.84,1.6098 -59.90429,1.0527 -13.12021,-0.3038 -23.67723,-0.6869 -32.25,-1.1875 -8.35765,-0.4881 -14.87271,-1.0902 -20.26563,-1.8633 -5.3722,-0.7701 -9.58838,-1.7022 -13.48437,-2.8457 -3.82599,-1.123 -7.23226,-2.4195 -10.75391,-3.7558 -2.35291,-0.8928 -4.20995,-2.7509 -5.10352,-5.1035 -13.65913,-35.9623 -24.72396,-65.4362 -32.20898,-92.8516 -7.77972,-28.4947 -11.37703,-55.6285 -12.50195,-63.6367 -0.84184,-5.9929 -1.95288,-14.3224 -2.01758,-14.8047 -0.01,-0.073 0.0216,-0.1383 0.0137,-0.2109 -11.34662,-5.3477 -22.68782,-10.7205 -33.74414,-16.7461 a 8.8006473,8.7997985 88.616009 0 1 -3.30469,-3.1485 c -65.0957,-106.8389 -99.44724,-229.7591 -101.02734,-351.1836 -0.80991,-62.2377 6.97421,-121.5905 25.83203,-175.8613 17.74004,-51.05352 48.56143,-105.45924 96.76758,-147.29101 -0.51498,-0.33887 -3.62071,-2.39532 -3.75,-2.48047 l -2.50781,-12.18945 12.18945,-2.50977 c 0.29167,0.19209 6.52977,4.32647 8.69726,5.75391 28.76968,-21.83946 61.66644,-38.75381 97.33008,-49.28516 30.03744,-8.86993 61.6506,-13.37615 93.39844,-13.11719 10.58261,0.0863 21.18045,0.7012 31.74023,1.86133 11.37633,1.24984 22.62006,3.34107 33.77344,5.8086 0.68793,-5.93043 1.79819,-15.4532 2.27149,-19.5625 2.72652,-23.6734 6.65023,-58.34033 9.80273,-96.16993 3.15417,-37.84966 5.65814,-80.32176 7.34961,-109.67187 -0.63181,11.14962 0.0828,-1.43909 0.5625,-9.87891 z m 660.01369,0 c 0.4797,8.43982 1.1943,21.02853 0.5625,9.87891 1.6915,29.35011 4.1955,71.82221 7.3496,109.67187 3.1525,37.8296 7.0761,72.49653 9.8027,96.16993 0.4733,4.1093 1.5836,13.63207 2.2715,19.5625 11.1534,-2.46753 22.3976,-4.55876 33.7734,-5.8086 42.2395,-4.64047 85.0892,-0.57074 125.1387,11.25586 35.6642,10.53143 68.5602,27.44545 97.3301,49.28516 2.1675,-1.42744 8.4056,-5.56182 8.6973,-5.75391 l 12.1894,2.50977 -2.5097,12.18945 c -0.1293,0.0851 -3.2334,2.14181 -3.7481,2.48047 48.2065,41.83177 79.0274,96.23749 96.7676,147.29101 18.8579,54.2708 26.6419,113.6236 25.832,175.8613 -1.5801,121.4245 -35.9318,244.3447 -101.0273,351.1836 a 8.7997985,8.8006473 1.383991 0 1 -3.3047,3.1485 c -11.0564,6.0256 -22.3975,11.3984 -33.7442,16.7461 -0.01,0.073 0.023,0.138 0.014,0.2109 -0.065,0.4823 -1.1757,8.8118 -2.0176,14.8047 -1.1249,8.0082 -4.7222,35.142 -12.5019,63.6367 -7.4851,27.4154 -18.5498,56.8893 -32.209,92.8516 -0.8936,2.3526 -2.7526,4.2107 -5.1055,5.1035 -3.5216,1.3363 -6.9279,2.6328 -10.7539,3.7558 -3.896,1.1435 -8.1101,2.0756 -13.4824,2.8457 -5.3929,0.7731 -11.9099,1.3752 -20.2676,1.8633 -8.5728,0.5006 -19.1297,0.8837 -32.25,1.1875 -24.0636,0.5571 -42.768,0.1135 -59.9023,-1.0527 -3.2627,4.4718 -6.6248,8.9056 -10.168,13.2773 -7.9926,9.8615 -16.2254,18.9827 -21.5625,24.8184 -5.7375,6.2735 -13.2033,14.2349 -14.8398,15.9844 -0.672,0.7184 -1.4819,1.2009 -2.3028,1.6425 0.8007,15.25 0.9789,30.0353 0.3516,43.9219 -0.9167,20.2896 -3.1635,40.017 -6.5684,59.041 -7.2645,40.5913 -19.4308,75.7943 -32.6797,105.5059 29.6447,-18.2447 109.5914,-70.8729 151.6583,-134.4512 51.766,-78.2373 81.1777,-148.2402 81.1777,-148.2402 0,0 130.0041,-37.0594 177.6523,-67.6484 47.6483,-30.589 107.6504,-80.002 107.6504,-80.002 0,0 98.2435,-90.5715 121.2793,-447.2871 18.0444,-279.42259 -68.6328,-370.6172 -68.6328,-370.6172 0,0 -77.3275,-10.16918 -170.2969,32.58984 -70.7018,32.51762 -102.9453,55.88282 -102.9453,55.88282 0,0 37.6477,-94.12032 -162.3574,-220.00586 -42.9024,-27.00329 -88.7429,-48.20874 -134.3203,-65.29102 z M 608.25722,758.38267 c -29.98533,-0.24413 -59.86691,4.01161 -88.26172,12.39649 -31.67117,9.35237 -60.95904,23.9629 -86.80469,42.66797 5.12743,3.39279 7.05484,4.63957 11.81446,7.8164 11.56748,7.72095 34.13346,22.84578 57.49414,39.61524 24.2774,17.42751 55.35278,40.79979 88.62304,69.96093 56.77382,49.76175 118.96313,115.4302 183.3086,194.0684 29.28937,35.7947 57.49063,72.4129 82.88672,106.1386 25.93717,34.445 48.54543,65.3084 66.08398,88.8301 19.0048,25.4882 32.52063,43.0223 43.0332,56.3809 10.31642,13.1093 18.56984,23.2586 27.83594,34.6074 5.50261,1.4142 10.92531,2.7653 15.65621,3.6523 2.7411,0.514 5.2709,0.8758 7.3829,1.1329 2.2679,0.276 4.1558,0.4434 5.3652,0.5449 0.4951,0.041 0.9024,0.074 1.2383,0.1 v -121.5664 a 8.8000002,8.8000002 0 0 1 -0.045,0.01 8.8000002,8.8000002 0 0 1 -3.0273,-0.414 8.8000002,8.8000002 0 0 1 -3.1387,-0.4317 l -11.3593,-8.8203 -45.44145,-35.2832 a 8.8000004,8.8000004 0 0 1 -3.30273,-5.6308 c -9.34893,-61.5829 -24.09598,-132.7673 -47.59961,-210.1836 -10.5887,-34.87733 -23.31311,-71.64007 -40.28711,-106.01957 -16.23229,-32.87702 -36.55327,-64.03287 -63.33399,-90.2539 -44.37458,-43.44737 -104.85939,-70.60312 -168.15234,-77.55664 -9.96733,-1.09505 -19.97364,-1.67644 -29.96875,-1.75782 z m 831.31638,0 c -9.9954,0.0814 -20.0033,0.66277 -29.9707,1.75782 -63.2926,6.95352 -123.7781,34.10927 -168.1523,77.55664 -26.7809,26.22103 -47.1016,57.37689 -63.334,90.2539 -16.9741,34.3795 -29.6983,71.14221 -40.2871,106.01957 -23.5039,77.4162 -38.2506,148.6007 -47.5996,210.1836 a 8.8000004,8.8000004 0 0 1 -3.3028,5.6289 c -21.3766,16.5978 -37.4649,29.0917 -45.4414,35.2851 -6.3874,4.9596 -9.4659,7.3502 -11.3593,8.8203 a 8.8000002,8.8000002 0 0 1 -3.1016,0.42 8.8000002,8.8000002 0 0 1 -3.1094,0.4199 v 121.5664 c 0.3355,-0.025 0.7419,-0.058 1.2364,-0.1 1.2087,-0.1015 3.0992,-0.2689 5.3671,-0.5449 2.112,-0.2571 4.6399,-0.6189 7.3809,-1.1329 4.731,-0.887 10.1542,-2.2381 15.6562,-3.6523 9.2662,-11.3488 17.5195,-21.4981 27.836,-34.6074 10.5126,-13.3586 24.0283,-30.8927 43.0332,-56.3809 17.5387,-23.5217 40.1492,-54.3851 66.0859,-88.8301 25.3962,-33.7257 53.5978,-70.3439 82.8867,-106.1386 64.3459,-78.6382 126.5326,-144.30665 183.3067,-194.0684 33.2705,-29.16114 64.346,-52.53342 88.623,-69.96093 23.3608,-16.76946 45.9285,-31.89429 57.4961,-39.61524 4.7602,-3.1772 6.6885,-4.42326 11.8164,-7.8164 -25.8447,-18.70518 -55.1331,-33.31556 -86.8047,-42.66797 -28.3945,-8.3849 -58.2755,-12.64061 -88.2617,-12.39649 z M 418.39394,824.76158 c -0.78927,0.65964 -1.67606,1.2105 -2.45703,1.87891 -46.14163,39.49097 -75.85535,91.6146 -93.0293,141.03906 -18.04835,51.94055 -25.64874,109.19075 -24.85938,169.85545 1.52973,117.5534 34.59777,236.597 97.23438,340.2324 55.72116,30.0951 115.46543,51.4114 176.39062,63.4981 55.05005,10.9211 109.55313,14.0348 161.48633,10.791 a 8.8000002,8.8000002 0 0 1 3.35547,17.125 l -17.46094,5.873 c -14.26153,28.5214 -24.57664,57.1365 -31.84765,85.0313 4.39643,-1.6519 8.8925,-3.4177 13.61914,-5.4414 10.48788,-4.4904 21.55256,-9.771 33.01562,-15.6035 22.72118,-11.5606 46.23088,-24.8857 68.47852,-37.4707 23.05519,-13.0418 45.46248,-25.6829 67.27344,-37.0176 23.71968,-12.3265 44.58347,-21.9689 62.80273,-28.416 21.6922,-7.676 39.15032,-10.5926 51.99219,-11.9883 11.36035,-1.2346 21.59922,-1.4754 26.88872,-1.5684 4.1085,-0.072 9.1362,-0.092 12.6367,-0.092 v -88.5527 c -0.5919,-0.035 -1.423,-0.093 -2.709,-0.2012 -1.3093,-0.1098 -3.4425,-0.2994 -6.0215,-0.6132 -2.3964,-0.2917 -5.3074,-0.7065 -8.498,-1.3047 -6.2341,-1.1689 -13.33263,-3.011 -19.60552,-4.6309 -1.8135,-0.4683 -3.43038,-1.5024 -4.61523,-2.9531 -10.03257,-12.2836 -18.76574,-22.9929 -29.85937,-37.0899 -10.61585,-13.4891 -24.22529,-31.1454 -43.3125,-56.7441 -17.61049,-23.6181 -40.18359,-54.4349 -66.03516,-88.7656 -25.32117,-33.6269 -53.36507,-70.038 -82.44727,-105.5801 -63.91001,-78.1055 -125.42945,-143.01783 -181.28711,-191.97657 -32.6979,-28.65947 -63.2831,-51.67054 -87.28515,-68.90039 -23.10355,-16.58481 -45.46338,-31.57046 -57.00391,-39.27344 -6.77375,-4.52124 -10.07573,-6.67409 -16.83984,-11.14062 z m 1211.04106,0 c -6.7646,4.46675 -10.0681,6.61901 -16.8418,11.14062 -11.5406,7.70298 -33.8983,22.68863 -57.002,39.27344 -24.0022,17.22985 -54.587,40.24092 -87.2852,68.90039 -55.8573,48.95874 -117.3766,113.87107 -181.2871,191.97657 -29.0817,35.5421 -57.1279,71.9532 -82.4492,105.5801 -25.8517,34.3307 -48.4252,65.1475 -66.0351,88.7656 -19.0874,25.5987 -32.6966,43.255 -43.3125,56.7441 -11.0938,14.097 -19.8268,24.8063 -29.8594,37.0899 -1.1849,1.4507 -2.8017,2.4848 -4.6152,2.9531 -6.2729,1.6199 -13.3695,3.462 -19.6036,4.6309 -3.1907,0.5982 -6.1036,1.013 -8.5,1.3047 -2.579,0.3138 -4.7122,0.5034 -6.0214,0.6132 -1.2852,0.1079 -2.1153,0.1659 -2.7071,0.2012 v 88.5527 c 3.5003,0 8.5264,0.02 12.6348,0.092 5.2895,0.093 15.5283,0.3338 26.8887,1.5684 12.8414,1.3957 30.3003,4.3123 51.9921,11.9883 18.2194,6.4471 39.0829,16.0895 62.8028,28.416 21.811,11.3347 44.2181,23.9758 67.2734,37.0176 22.2478,12.585 45.7592,25.9101 68.4805,37.4707 11.4631,5.8325 22.5257,11.1131 33.0137,15.6035 4.7278,2.0242 9.2255,3.7892 13.623,5.4414 -7.2711,-27.8949 -17.5879,-56.5097 -31.8496,-85.0313 -5.4132,-1.8208 -11.2844,-3.7954 -17.4609,-5.873 a 8.8000002,8.8000002 0 0 1 3.3554,-17.125 c 51.9336,3.2438 106.436,0.1302 161.4864,-10.791 60.9249,-12.0867 120.669,-33.403 176.3906,-63.4981 62.6363,-103.6354 95.7046,-222.679 97.2344,-340.2324 0.7894,-60.6647 -6.8109,-117.915 -24.8594,-169.85545 -17.1741,-49.42445 -46.8881,-101.54809 -93.0293,-141.03906 -0.781,-0.66845 -1.6677,-1.21924 -2.457,-1.87891 z M 580.66542,1036.7753 c 2.24523,-0.176 4.55895,0.5051 6.40625,2.0839 3.69462,3.1576 4.1283,8.7117 0.97071,12.4063 -1.44561,1.6915 -7.80113,9.1109 -12.68946,14.9609 -4.56376,5.4616 -11.44842,13.8141 -18.19336,22.9004 -9.95118,13.4056 -18.69298,27.1347 -25.93945,42.2305 -7.2638,15.1319 -13.3241,32.2576 -18.87109,51.2187 -3.75176,12.8246 -7.01057,25.6481 -9.11524,34.0918 -2.25499,9.0467 -5.06967,20.7503 -5.70703,23.3907 -1.14042,4.7242 -5.89473,7.6306 -10.61914,6.4902 -4.72441,-1.1404 -7.63066,-5.8948 -6.49023,-10.6192 0.62865,-2.6042 3.46521,-14.3904 5.74023,-23.5175 2.11749,-8.4951 5.44381,-21.5998 9.29883,-34.7774 5.69746,-19.4756 12.07167,-37.5899 19.89844,-53.8945 7.84408,-16.3407 17.22898,-31.0329 27.67382,-45.1035 7.05276,-9.5011 14.19583,-18.1634 18.81836,-23.6953 4.96777,-5.945 11.40647,-13.4597 12.81641,-15.1094 1.5788,-1.8474 3.75672,-2.8807 6.00195,-3.0566 z m 886.49808,0 c 2.2452,0.1759 4.4231,1.2092 6.0019,3.0566 1.41,1.6497 7.8486,9.1644 12.8164,15.1094 4.6226,5.5319 11.7675,14.1942 18.8203,23.6953 10.4448,14.0706 19.8278,28.7628 27.6719,45.1035 7.8268,16.3046 14.2011,34.4189 19.8985,53.8945 3.8549,13.1776 7.1813,26.2823 9.2988,34.7774 2.275,9.1271 5.1115,20.9133 5.7402,23.5175 1.1404,4.7244 -1.7658,9.4788 -6.4902,10.6192 -4.7244,1.1404 -9.4788,-1.766 -10.6192,-6.4902 -0.6374,-2.6404 -3.452,-14.344 -5.707,-23.3907 -2.1046,-8.4437 -5.3634,-21.2672 -9.1152,-34.0918 -5.547,-18.9611 -11.6072,-36.0868 -18.8711,-51.2187 -7.2464,-15.0958 -15.9883,-28.8249 -25.9395,-42.2305 -6.7449,-9.0863 -13.6295,-17.4388 -18.1933,-22.9004 -4.8884,-5.85 -11.2439,-13.2694 -12.6895,-14.9609 -3.1576,-3.6946 -2.7219,-9.2487 0.9727,-12.4063 1.8473,-1.5788 4.159,-2.2599 6.4043,-2.0839 z m -883.19925,303.0742 c 2.55658,0.082 14.14047,0.4449 23.17773,0.8125 9.98977,0.4063 26.20361,1.1497 42.7754,2.8086 17.63765,1.7657 34.4249,4.409 50.7832,8.4316 19.12697,4.7034 38.21211,11.4278 57.6914,19.4297 13.17278,5.4112 25.79038,11.1177 33.93555,14.8457 8.74927,4.0045 19.94819,9.2422 22.42578,10.3984 4.40415,2.0553 6.30918,7.2931 4.25391,11.6973 -2.05527,4.4041 -7.29312,6.3071 -11.69727,4.252 -2.51088,-1.1717 -13.63239,-6.3736 -22.30664,-10.3438 -8.09437,-3.7047 -20.45714,-9.295 -33.29883,-14.5703 -18.97578,-7.795 -37.19534,-14.188 -55.20703,-18.6172 -15.38109,-3.7823 -31.32501,-6.309 -48.33398,-8.0117 -16.02727,-1.6045 -31.8099,-2.3306 -41.73828,-2.7344 -8.94356,-0.3638 -20.42917,-0.7226 -23.02735,-0.8066 -4.85756,-0.1567 -8.66841,-4.2225 -8.51171,-9.0801 0.1567,-4.8576 4.22055,-8.6684 9.07812,-8.5117 z m 879.90035,0 c 4.8575,-0.1567 8.9215,3.6541 9.0782,8.5117 0.1567,4.8576 -3.6542,8.9234 -8.5118,9.0801 -2.5982,0.084 -14.0837,0.4428 -23.0273,0.8066 -9.9284,0.4038 -25.711,1.1299 -41.7383,2.7344 -17.009,1.7027 -32.9529,4.2294 -48.334,8.0117 -18.0116,4.4292 -36.2312,10.8222 -55.207,18.6172 -12.8417,5.2753 -25.2044,10.8656 -33.2988,14.5703 -8.6742,3.9702 -19.7958,9.1721 -22.3067,10.3438 -4.4042,2.0551 -9.642,0.1521 -11.6972,-4.252 -2.0553,-4.4042 -0.1503,-9.642 4.2539,-11.6973 2.4776,-1.1562 13.6765,-6.3939 22.4258,-10.3984 8.1452,-3.728 20.7627,-9.4345 33.9355,-14.8457 19.4793,-8.0019 38.5644,-14.7263 57.6914,-19.4297 16.3584,-4.0226 33.1475,-6.6659 50.7852,-8.4316 16.5718,-1.6589 32.7836,-2.4023 42.7734,-2.8086 9.0373,-0.3676 20.6211,-0.7301 23.1777,-0.8125 z M 437.41738,1517.4432 c 0.23814,1.7405 0.31642,2.3679 0.54101,3.9668 1.1405,8.119 4.60968,34.1859 12.05274,61.4473 6.97204,25.5365 17.22831,53.1449 30.27343,87.5234 1.99856,0.7347 3.8275,1.3669 5.77149,1.9375 3.01038,0.8835 6.39647,1.6473 11.02343,2.3106 4.7267,0.6776 10.71148,1.2447 18.79688,1.7168 8.28122,0.4836 18.60857,0.8586 31.63086,1.1601 19.03729,0.4407 34.16097,0.1658 48.11523,-0.4531 -3.12867,-5.1102 -6.12094,-10.2893 -8.78906,-15.6445 -8.11553,-16.2891 -14.00936,-33.9409 -18.78906,-52.6582 -3.23149,-12.6547 -5.76523,-25.1323 -7.34961,-33.1856 -1.4993,-7.6208 -2.99994,-15.7483 -3.71484,-19.5996 -40.72193,-8.8833 -80.82149,-21.7619 -119.5625,-38.5215 z m 1172.99222,0 c -38.7407,16.7592 -78.8392,29.6382 -119.5606,38.5215 -0.715,3.8513 -2.2155,11.9788 -3.7148,19.5996 -1.5844,8.0533 -4.1181,20.5309 -7.3496,33.1856 -4.7797,18.7173 -10.6735,36.3691 -18.7891,52.6582 -2.6681,5.3552 -5.6604,10.5343 -8.7891,15.6445 13.9543,0.6189 29.0779,0.8938 48.1153,0.4531 13.0223,-0.3015 23.3496,-0.6765 31.6308,-1.1601 8.0855,-0.4721 14.0683,-1.0392 18.795,-1.7168 4.6266,-0.6633 8.0149,-1.4271 11.0253,-2.3106 1.944,-0.5706 3.773,-1.2028 5.7715,-1.9375 13.0452,-34.3785 23.3014,-61.9869 30.2735,-87.5234 7.443,-27.2614 10.9102,-53.3283 12.0507,-61.4473 0.2247,-1.5989 0.3029,-2.2263 0.5411,-3.9668 z m -586.4961,30.2539 -0.293,0.01 c -0.2243,0.01 -0.4691,0.012 -0.6934,0.018 -0.5934,0.015 -3.5936,0.1152 -6.707,0.2558 -3.3073,0.1494 -7.8863,0.3907 -13.2695,0.8946 -7.13695,0.668 -15.86221,1.8 -28.3594,4.0351 -6.34772,1.1353 -11.42712,2.1084 -16.12109,3.1543 -3.34151,0.7446 -6.28637,1.4826 -9.04883,2.252 -1.49276,0.4157 -3.04867,0.8718 -4.67187,1.3828 -4.1546,1.3079 -8.69534,2.9509 -14.05469,5.2558 -4.93174,2.1211 -10.43255,4.7471 -17.02149,8.1641 -13.38991,6.942 -23.0615,13.2456 -31.09375,19.1992 -6.30845,4.676 -11.79032,9.2984 -15.71289,12.6797 -3.76036,3.2415 -7.14905,6.2693 -7.8125,6.877 -0.42162,0.3861 -0.57366,0.5393 -0.6875,0.6464 -2.07026,1.9482 -4.99216,-1.1573 -2.92187,-3.1054 0.11485,-0.1081 0.27545,-0.2482 0.6875,-0.6465 0.90855,-0.8782 3.58703,-3.5821 7.43359,-7.3574 3.69217,-3.6238 9.0181,-8.7677 15.17188,-13.9512 7.89107,-6.647 17.55169,-13.7545 31.05469,-21.4649 4.41057,-2.5188 8.26201,-4.588 11.92187,-6.4863 -13.28973,5.5686 -27.54158,12.109 -44.00391,20.6641 -21.48979,11.1678 -43.63201,23.6577 -66.72461,36.7207 -22.16924,12.5407 -46.03155,26.0659 -69.16406,37.8359 -11.69839,5.9522 -23.12555,11.4126 -34.06836,16.0977 -8.81015,3.772 -17.13468,6.8315 -25.14843,9.4355 -8.54351,40.4339 -11.02166,78.9147 -9.49805,112.6387 0.88138,19.5087 3.04083,38.4646 6.31055,56.7344 8.24412,46.0642 22.97472,85.4223 38.35937,116.7383 2.82202,5.7441 5.65827,10.9265 8.48633,16.123 5.47055,4.6864 9.65463,8.5183 19.57812,16.1309 30.36477,23.2934 71.01274,61.2755 138.11914,78.9902 67.31143,17.7689 139.95316,16.0176 139.95316,16.0176 v -195.3946 c -0.5973,0.102 -1.2135,0.1415 -1.8438,0.1114 -0.2415,-0.012 -3.5335,-0.165 -7.1387,-0.3672 -1.6658,-0.093 -3.7897,-0.2183 -6.2695,-0.3789 -1.3966,-0.091 -3.0578,-0.1994 -4.9101,-0.3281 -6.47839,-0.4505 -17.88981,-1.3091 -31.63676,-2.8536 -21.60535,-2.4273 -52.0522,-6.8418 -81.125,-15.2695 -13.61783,-3.9475 -24.79,-7.6344 -34.33984,-11.2656 -10.08409,-3.8344 -18.13594,-7.5238 -25.04883,-11.1797 -6.81704,-3.6052 -13.1598,-7.5205 -19.89063,-12.1738 -6.12544,-4.2348 -12.0805,-8.7312 -18.95117,-13.9141 -2.07184,-1.5629 -3.24855,-3.8571 -3.14062,-6.1191 0.9205,-19.2932 2.12477,-39.0711 2.27929,-45.8516 0.0602,-2.6406 0,-4.1764 0,-5.0117 l 5.25,-5.25 5.25,5.25 c 0,0.8353 -0.0602,2.3711 0,5.0117 0.14354,6.2985 1.19191,23.812 2.07813,41.7344 5.88415,3.9981 10.97363,7.4108 16.13672,10.6426 6.51877,4.0801 12.45871,7.4249 18.75781,10.5605 6.38294,3.1774 13.86897,6.4932 23.40039,10.0449 9.05528,3.3743 19.78023,6.8989 33.08203,10.7598 27.68691,8.0362 57.38124,12.4949 78.22656,14.9551 13.41442,1.5831 24.54579,2.4952 30.88482,2.9609 1.8165,0.1335 3.4254,0.2432 4.7968,0.332 2.4222,0.1569 4.4966,0.2799 6.1231,0.3711 3.5207,0.1975 6.736,0.3469 6.998,0.3594 0.3506,0.017 0.6938,0.056 1.0313,0.1133 z m 0,0 v 333.7852 c 0.3368,-0.057 0.6813,-0.096 1.0313,-0.1133 0.262,-0.012 3.4773,-0.1619 6.998,-0.3594 1.6265,-0.091 3.7009,-0.2142 6.1231,-0.3711 1.3714,-0.089 2.9782,-0.1985 4.7949,-0.332 6.3389,-0.4657 17.4703,-1.3778 30.8848,-2.9609 20.8452,-2.4602 50.5396,-6.9189 78.2265,-14.9551 13.3018,-3.8609 24.0287,-7.3855 33.084,-10.7598 9.5314,-3.5517 17.0155,-6.8675 23.3984,-10.0449 6.2991,-3.1356 12.2391,-6.4804 18.7579,-10.5605 5.1629,-3.2318 10.2525,-6.6445 16.1367,-10.6426 0.8862,-17.9224 1.9346,-35.4359 2.0781,-41.7344 0.06,-2.6406 0,-4.1764 0,-5.0117 l 5.2519,-5.25 5.25,5.25 c 0,0.8353 -0.06,2.3711 0,5.0117 0.1546,6.7805 1.3588,26.5584 2.2793,45.8516 0.108,2.262 -1.0707,4.5562 -3.1425,6.1191 -6.8707,5.1829 -12.8238,9.6793 -18.9493,13.9141 -6.7307,4.6533 -13.0735,8.5686 -19.8906,12.1738 -6.9129,3.6559 -14.9647,7.3453 -25.0488,11.1797 -9.5499,3.6312 -20.724,7.3181 -34.3418,11.2656 -29.0728,8.4277 -59.5178,12.8422 -81.123,15.2695 -13.747,1.5445 -25.1604,2.4031 -31.6387,2.8536 -1.8524,0.1287 -3.5135,0.2376 -4.9102,0.3281 -2.4798,0.1606 -4.6036,0.2854 -6.2695,0.3789 -3.6051,0.2022 -6.8952,0.3556 -7.1367,0.3672 -0.6297,0.03 -1.2471,-0.01 -1.8438,-0.1114 v 195.3946 c 0,0 72.6417,1.7513 139.9531,-16.0176 67.1065,-17.7147 107.7544,-55.6968 138.1192,-78.9902 9.9235,-7.6126 14.1076,-11.4445 19.5781,-16.1309 2.828,-5.1965 5.6644,-10.3789 8.4863,-16.123 15.3848,-31.316 30.1152,-70.6741 38.3594,-116.7383 3.2697,-18.2697 5.4292,-37.2256 6.3106,-56.7344 1.5236,-33.724 -0.9546,-72.2048 -9.4981,-112.6387 -8.0143,-2.604 -16.3402,-5.6635 -25.1504,-9.4355 -10.9428,-4.6851 -22.3699,-10.1455 -34.0683,-16.0977 -23.1327,-11.77 -46.9947,-25.2952 -69.1641,-37.8359 -23.0927,-13.063 -45.2327,-25.5529 -66.7227,-36.7207 -16.46,-8.554 -30.7109,-15.0939 -44,-20.6621 3.6582,1.8978 7.5071,3.9664 11.9161,6.4843 13.5027,7.7104 23.1655,14.8179 31.0566,21.4649 6.1538,5.1835 11.4778,10.3274 15.1699,13.9512 3.8466,3.7753 6.5251,6.4792 7.4336,7.3574 0.4121,0.3983 0.5727,0.5384 0.6875,0.6465 2.0703,1.9481 -0.8516,5.0536 -2.9219,3.1054 -0.1138,-0.1071 -0.2658,-0.2603 -0.6875,-0.6464 -0.6634,-0.6077 -4.0501,-3.6355 -7.8105,-6.877 -3.9226,-3.3813 -9.4067,-8.0037 -15.7148,-12.6797 -8.0323,-5.9536 -17.7038,-12.2572 -31.0938,-19.1992 -6.5889,-3.417 -12.0878,-6.043 -17.0195,-8.1641 -5.3594,-2.3049 -9.9001,-3.9479 -14.0547,-5.2558 -1.6232,-0.511 -3.1811,-0.9671 -4.6738,-1.3828 -2.7625,-0.7694 -5.7054,-1.5074 -9.0469,-2.252 -4.694,-1.0459 -9.7753,-2.019 -16.1231,-3.1543 -12.4972,-2.2351 -21.2205,-3.3671 -28.3574,-4.0351 -5.3832,-0.5039 -9.9622,-0.7452 -13.2695,-0.8946 -3.1134,-0.1406 -6.1156,-0.2403 -6.709,-0.2558 -0.2243,-0.01 -0.4691,-0.012 -0.6934,-0.018 z m -448.29881,12.084 c 0.8274,4.4151 1.40506,7.5956 2.34766,12.3867 1.56949,7.9776 4.0267,20.0629 7.13281,32.2266 4.58867,17.9695 10.10796,34.3488 17.49024,49.166 3.80951,7.6463 8.22897,15.054 13.14648,22.3555 17.12524,-1.6035 33.86552,-4.4847 52.05664,-9.5117 7.39985,-31.2819 18.284,-63.5406 34.0625,-95.7793 -41.12271,0.4995 -83.4719,-2.8969 -126.23633,-10.8438 z m 896.59771,0 c -42.7654,7.9471 -85.1153,11.3433 -126.2383,10.8438 15.7785,32.2387 26.6626,64.4974 34.0625,95.7793 18.1907,5.0267 34.9316,7.9082 52.0566,9.5117 4.9175,-7.3015 9.337,-14.7092 13.1465,-22.3555 7.3823,-14.8172 12.9015,-31.1965 17.4902,-49.166 3.1062,-12.1637 5.5653,-24.249 7.1348,-32.2266 0.9426,-4.7912 1.5203,-7.9715 2.3477,-12.3867 z m -529.48247,80.6699 c 0.77093,-0.072 1.61216,0.1025 2.4707,0.6153 0.42698,0.255 2.31258,1.3816 3.78906,2.2558 3.91302,2.3166 9.54135,5.6085 15.66016,8.5547 6.13418,2.9535 13.05356,5.7014 17.91797,7.6094 1.83258,0.7188 4.19439,1.6348 4.72656,1.8418 4.97069,1.933 2.07029,9.3901 -2.90039,7.457 -0.52606,-0.2046 -2.90177,-1.1274 -4.74805,-1.8515 -4.84928,-1.9021 -12.02642,-4.7477 -18.46484,-7.8477 -6.45379,-3.1074 -12.33937,-6.5533 -16.26758,-8.8789 -1.49321,-0.8841 -3.39485,-2.0209 -3.81445,-2.2715 -3.72035,-2.2219 -1.70983,-7.1727 1.63086,-7.4844 z m 162.36527,0 c 3.3406,0.3117 5.3512,5.2625 1.6308,7.4844 -0.4196,0.2506 -2.3212,1.3874 -3.8144,2.2715 -3.9282,2.3256 -9.8138,5.7715 -16.2676,8.8789 -6.4384,3.1 -13.6156,5.9456 -18.4649,7.8477 -1.8463,0.7241 -4.2219,1.6469 -4.748,1.8515 -4.9707,1.9331 -7.871,-5.524 -2.9004,-7.457 0.5322,-0.207 2.8959,-1.123 4.7285,-1.8418 4.8644,-1.908 11.7818,-4.6559 17.916,-7.6094 6.1188,-2.9462 11.7492,-6.2381 15.6622,-8.5547 1.4763,-0.8742 3.3601,-2.0008 3.7871,-2.2558 0.8585,-0.5128 1.6997,-0.6872 2.4707,-0.6153 z m -441.55277,45.2559 c -12.32264,3.0249 -24.11898,4.9489 -35.90039,6.4219 1.07665,1.3706 2.0909,2.7453 3.20117,4.1152 7.65191,9.4413 15.59767,18.2509 20.87695,24.0234 2.30341,2.5186 3.6187,3.8999 5.99219,6.4532 1.36907,-13.3855 3.13717,-27.0059 5.83008,-41.0137 z m 720.74027,0 c 2.6929,14.0078 4.461,27.6282 5.83,41.0137 2.3735,-2.5533 3.6888,-3.9346 5.9922,-6.4532 5.2793,-5.7725 13.2269,-14.5821 20.8789,-24.0234 1.1098,-1.3693 2.1231,-2.7433 3.1993,-4.1133 -11.7818,-1.4729 -23.5775,-3.3987 -35.9004,-6.4238 z" />
  </g>
</svg>
